<?xml version="1.0" encoding="utf-8" ?>
<svg baseProfile="full" height="200mm" version="1.1" viewBox="0,0,200,200" width="200mm" xmlns="http://www.w3.org/2000/svg" xmlns:ev="http://www.w3.org/2001/xml-events" xmlns:xlink="http://www.w3.org/1999/xlink"><defs /><rect fill="#1a1a1a" height="200" width="200" x="0" y="0" /><text alignment-baseline="middle" fill="#e1ed5e" style="dominant-baseline: central; font-size:9.0px; font-family:Arial;" text-anchor="middle" x="100.0" y="100.0">2023</text><line stroke="#e1ed5e" stroke-width="0.3" x1="100.0" x2="100.0" y1="15.0" y2="10.0" /><path d="M 100.0 14.0 a86.0,86.0 0 0,1 42.46469731375804,11.215312516191453" fill="none" id="id13" stroke="none" /><text fill="#e1ed5e" style="font-size:6.75px; font-family:Arial;" text-anchor="middle"><textPath startOffset="22.20632615414155" xlink:href="#id13">January</textPath></text><path d="M 100.72285384407766 79.0124445844662 l 0.7578261304315661 -22.002951271658834 a43.01599793575022,43.01599793575022 0 0,0 0.7397915242103706,0.03185697922530766 l -1.1364584870312682 21.986646565909332" fill="#fdff18" stroke="none" /><path d="M 101.08401301168833 79.027996857942 l 0.78136765530934 -15.11683415748652 a36.13701457876403,36.13701457876403 0 0,0 0.6209336334121089,0.03745641246361813 l -1.041463337561061 15.101144475642599" fill="#ffa70f" stroke="none" /><path d="M 101.44485096284872 79.0497635885617 l 1.5203463363429415 -22.04491396873833 a43.09727777061025,43.09727777061025 0 0,0 0.7396515104906772,0.05741119266779704 l -1.8995880361959598 22.015477513882068" fill="#fcff18" stroke="none" /><path d="M 102.16513564639614 79.11191278185805 l 2.4936351329348816 -24.057277073455438 a45.18616952651271,45.18616952651271 0 0,0 0.7729703159417884,0.08685222139302277 l -2.907372152386395 24.010788898591816" fill="#e2ff1b" stroke="none" /><path d="M 102.88285421437855 79.19881850522331 l 3.329545984662221 -24.024277737226274 a45.25390272222939,45.25390272222939 0 0,0 0.7706761604825394,0.11357763270021103 l -3.742591125573416 23.963405620365094" fill="#e1ff1b" stroke="none" /><path d="M 103.2404852339499 79.25152402106235 l 3.7338115887506893 -23.90719119699292 a45.197006837827374,45.197006837827374 0 0,0 0.7676405861425989,0.12666727411187992 l -4.144781381032163 23.839377659941416" fill="#e2ff1b" stroke="none" /><path d="M 103.59715602781102 79.31037775812273 l 3.010547174869068 -17.315646946595002 a38.57540962456457,38.57540962456457 0 0,0 0.6532192318071084,0.11937163934049604 l -3.3081615277790775 17.261259825903768" fill="#ffc812" stroke="none" /><path d="M 104.307194497241 79.44645832069477 l 4.9568023371680745 -23.65341140232261 a45.167204231712034,45.167204231712034 0 0,0 0.7595774668606031,0.166014214068345 l -5.363222528182205 23.564583690158393" fill="#e2ff1b" stroke="none" /><path d="M 105.01212808612495 79.60689891045804 l 6.835660688740403 -27.812601163404473 a49.6403044768417,49.6403044768417 0 0,0 0.8280265438669812,0.21108240281176666 l -7.31339612129241 27.69081576442384" fill="#acff20" stroke="none" /><path d="M 105.71112130821622 79.79150937346287 l 7.8501208125062005 -27.777223472471483 a49.86517868662108,49.86517868662108 0 0,0 0.823985942820323,0.2405440918915317 l -8.327096973049951 27.63798105166125" fill="#aaff21" stroke="none" /><path d="M 106.40334571778207 80.00007090966166 l 8.694208532310478 -27.155109501576668 a49.512966068894336,49.512966068894336 0 0,0 0.8094596082466547,0.2668661062008074 l -9.16035096279955 27.00142967111662" fill="#aeff20" stroke="none" /><path d="M 106.74666289553966 80.11325718540242 l 6.522093288127806 -19.22479214421103 a41.300993420203845,41.300993420203845 0 0,0 0.671274871637138,0.2341946218865784 l -6.852050163828217 19.109676669152243" fill="#ffeb16" stroke="none" /><path d="M 107.76421540070413 80.48803036053334 l 8.917177847641366 -22.40943797323342 a45.11843633079603,45.11843633079603 0 0,0 0.7191365913746076,0.2933538720661662 l -9.30159830860436 22.252623214983675" fill="#e3ff1b" stroke="none" /><path d="M 108.09893153111575 80.62456947434976 l 9.296373865609187 -22.240124549956157 a45.10488969165269,45.10488969165269 0 0,0 0.7137660689339222,0.30559738078640925 l -9.677823692333424 22.076807641206955" fill="#e3ff1b" stroke="none" /><path d="M 109.08828744355905 81.06846463323043 l 12.479246969655401 -25.99514009915217 a49.83537608050574,49.83537608050574 0 0,0 0.7701434027364362,0.3779060230266934 l -12.92486163940227 25.776478915990644" fill="#aaff21" stroke="none" /><path d="M 109.41281617654863 81.2277094730956 l 10.799661238297885 -21.538121488293225 a45.09405238033802,45.09405238033802 0 0,0 0.6908827821665272,0.35389699505853967 l -11.168804508053167 21.349031967922187" fill="#e3ff1b" stroke="none" /><path d="M 110.05341064243156 81.56283822128135 l 9.969102592920779 -18.282547468872608 a41.82389369113663,41.82389369113663 0 0,0 0.6291028818210547,0.3500950726181787 l -10.28232956381387 18.10823699869425" fill="#fff216" stroke="none" /><path d="M 110.36928655335952 81.73862282372117 l 12.848229655330263 -22.627050238805566 a47.020384466520454,47.020384466520454 0 0,0 0.7003871381840057,0.40570943729785713 l -13.235813525979596 22.402536644117657" fill="#cbff1d" stroke="none" /><line stroke="#e1ed5e" stroke-width="0.3" x1="143.23703022742887" x2="145.7803849466894" y1="26.81831364943548" y2="22.513508569990506" /><path d="M 143.74570117128098 25.957352633546492 a86.0,86.0 0 0,1 28.547481713284135,27.462654790039103" fill="none" id="id14" stroke="none" /><text fill="#e1ed5e" style="font-size:6.75px; font-family:Arial;" text-anchor="middle"><textPath startOffset="19.985693538727396" xlink:href="#id14">February</textPath></text><path d="M 110.68208982089419 81.91981866633111 l 12.14155738899211 -20.550431886159576 a44.86917817055864,44.86917817055864 0 0,0 0.6615809342497362,0.39859511040586815 l -12.493500389459484 20.338390166295092" fill="#e6ff1a" stroke="none" /><path d="M 111.2981086023043 82.29822771554956 l 15.290563699931884 -23.957114083845326 a49.42084892271965,49.42084892271965 0 0,0 0.713149849396071,0.4638524996008321 l -15.700680575112234 23.690362660084965" fill="#afff20" stroke="none" /><path d="M 111.90073688211348 82.69761687909136 l 7.703005668631567 -11.199336358869646 a34.592697716423686,34.592697716423686 0 0,0 0.48770574245851434,0.34166903981293645 l -7.8946425506737326 11.065082476292774" fill="#ff920d" stroke="none" /><path d="M 112.48926042617603 83.11751280151076 l 14.553347976934836 -19.672638933912385 a45.47064894852277,45.47064894852277 0 0,0 0.6252297511899185,0.4709100862241471 l -14.889823881883137 19.41921225818239" fill="#deff1b" stroke="none" /><path d="M 112.77801427241765 83.33499621200491 l 15.623434558083094 -20.375982569839962 a46.67629983227971,46.67629983227971 0 0,0 0.63339170941986,0.4943722758950195 l -15.971858822662385 20.10403190472172" fill="#d0ff1d" stroke="none" /><path d="M 113.06298171725822 83.55741782278167 l 16.704976748995414 -21.026819060842215 a47.85485743774997,47.85485743774997 0 0,0 0.6405637041872524,0.5179579672330897 l -17.064443851747157 20.736154996344993" fill="#c1ff1e" stroke="none" /><path d="M 113.34407831869373 83.78471172551755 l 14.380478157147296 -17.474687518610747 a43.631015352857695,43.631015352857695 0 0,0 0.5758098599935975,0.48222419833956043 l -14.67914555410001 17.224562162877366" fill="#f5ff19" stroke="none" /><path d="M 113.89432698308785 84.25364557470407 l 18.47617445680382 -20.93893369391372 a48.92504193007354,48.92504193007354 0 0,0 0.6266808909807267,0.5626402915293546 l -18.833866335380538 20.61779439361507" fill="#b5ff20" stroke="none" /><path d="M 114.16331599549186 84.49514656593476 l 10.87419603782377 -11.904190786494937 a37.12320990839892,37.12320990839892 0 0,0 0.4680920624749077,0.43504055755454474 l -11.077495984093526 11.715245642865751" fill="#ffb410" stroke="none" /><path d="M 114.42810811169701 84.74124197986012 l 16.50362617962917 -17.453767076062466 a45.020900528964006,45.020900528964006 0 0,0 0.5585094750216032,0.5372856724643051 l -16.80161889826319 17.167098316835858" fill="#e4ff1a" stroke="none" /><path d="M 114.68862486808459 84.99185889309783 l 18.997995652502645 -19.411252044470952 a48.16101148238937,48.16101148238937 0 0,0 0.5874822366437459,0.5849594012183577 l -19.329313689313715 19.081356792602477" fill="#beff1f" stroke="none" /><path d="M 115.19652480421416 85.50635884689758 l 18.168777623616645 -17.328418599638763 a46.10734098825958,46.10734098825958 0 0,0 0.5428210185404028,0.5790436154779078 l -18.46436596412751 17.0131055672828" fill="#d6ff1c" stroke="none" /><path d="M 115.68641384162765 86.03803664274999 l 20.39577844096549 -18.153614593518984 a48.30460585730873,48.30460585730873 0 0,0 0.547470915271648,0.6258538960724608 l -20.705241219814987 17.799845141243576" fill="#bcff1f" stroke="none" /><path d="M 116.15771136456269 86.58626213691792 l 20.979384230803632 -17.416573068514765 a48.26667526770739,48.26667526770739 0 0,0 0.5251908610061639,0.6438218963271427 l -21.276073583886205 17.05286700257952" fill="#bcff1f" stroke="none" /><path d="M 116.60985879189232 87.15038557335679 l 22.573635984233483 -17.463274205942408 a49.540059347181014,49.540059347181014 0 0,0 0.5159810905692278,0.6789706325655144 l -22.870893015026827 17.07211879749586" fill="#adff20" stroke="none" /><path d="M 116.82858285166822 87.43820079747576 l 19.67061806684479 -14.683253873676898 a45.546510127725455,45.546510127725455 0 0,0 0.46357105161055695,0.6323103934251735 l -19.920451730968974 14.342481036580232" fill="#ddff1b" stroke="none" /><path d="M 117.04232023915458 87.72973835380427 l 14.75344714291411 -10.62230107676086 a39.17958973035738,39.17958973035738 0 0,0 0.3893469494279512,0.5507036483940059 l -14.934106712145944 10.36677092803506" fill="#ffd013" stroke="none" /><path d="M 117.2510076193507 88.02491185347247 l 15.666345327391248 -10.875067147904437 a40.070958585988905,40.070958585988905 0 0,0 0.3884508002527975,0.570003617059823 l -15.85122059331278 10.603785507574207" fill="#ffdb14" stroke="none" /><path d="M 117.45458315368197 88.32363383020206 l 14.914424490625162 -9.97710916560079 a38.94387820926332,38.94387820926332 0 0,0 0.3679331651870968,0.5603874530234697 l -15.083954291170183 9.718903648599646" fill="#ffcc13" stroke="none" /><path d="M 117.65298651832404 88.62581576622439 l 13.036472046302 -8.399668501371641 a36.508192491291446,36.508192491291446 0 0,0 0.3358273952503867,0.5311982901626979 l -13.179127037798342 8.174022563494738" fill="#ffac0f" stroke="none" /><line stroke="#e1ed5e" stroke-width="0.3" x1="172.23445277983987" x2="176.4835382374775" y1="55.19839476539836" y2="52.563006222186495" /><path d="M 173.08426987136738 54.67131705675599 a86.0,86.0 0 0,1 12.851231095245387,41.99856678651699" fill="none" id="id15" stroke="none" /><text fill="#e1ed5e" style="font-size:6.75px; font-family:Arial;" text-anchor="middle"><textPath startOffset="22.20632615414155" xlink:href="#id15">March</textPath></text><path d="M 118.21658344932153 89.55222093294921 l 21.210768369259043 -12.16503755388123 a45.4516836537221,45.4516836537221 0 0,0 0.3834008785547857,0.6820273819292862 l -21.41702688910626 11.79812666201715" fill="#deff1b" stroke="none" /><path d="M 118.3937258080291 89.86733742301442 l 8.277295267501678 -4.559763523226129 a30.450135466391433,30.450135466391433 0 0,0 0.2489543636799992,0.46127462628389837 l -8.354557730400142 4.416607913609773" fill="#ff5708" stroke="none" /><path d="M 118.56541770881063 90.18545643968196 l 12.51506999465044 -6.616048265083447 a35.15623790478648,35.15623790478648 0 0,0 0.2782207193025842,0.5374338738162515 l -12.627100147113142 6.39964166900685" fill="#ff990e" stroke="none" /><path d="M 118.73160827565052 90.50648371742162 l 13.695268236112952 -6.941008485791736 a36.35376080505741,36.35376080505741 0 0,0 0.27808893641996774,0.5606103266057401 l -13.812717185486328 6.704238570687046" fill="#ffaa0f" stroke="none" /><path d="M 118.89224826269711 90.83032412892265 l 16.13555457348147 -7.831667432141917 a38.93575022577732,38.93575022577732 0 0,0 0.2874604304347983,0.605464978045387 l -16.267973197758025 7.55276003845599" fill="#ffcc13" stroke="none" /><path d="M 119.196687751892 91.48605970444005 l 25.11345810917107 -11.138092452196856 a48.472584182686106,48.472584182686106 0 0,0 0.3317124126183201,0.7656379827378519 l -25.30146123163207 10.704155324872403" fill="#baff1f" stroke="none" /><path d="M 119.34039704204932 91.81776055985345 l 22.746362977076718 -9.623183426187062 a45.69823248613082,45.69823248613082 0 0,0 0.3002554776532716,0.7270924551882514 l -22.90864014161619 9.230216400545508" fill="#dbff1b" stroke="none" /><path d="M 119.61058180528143 92.48833698450437 l 12.685776954158316 -4.859176668777592 a34.58456973293769,34.58456973293769 0 0,0 0.2081586153756617,0.5577615992543622 l -12.767540158035603 4.640091932493897" fill="#ff920d" stroke="none" /><path d="M 119.7369772167798 92.82701384747503 l 17.19059904405631 -6.2475589621592125 a39.29067217133273,39.29067217133273 0 0,0 0.2255414039602815,0.6376359207278074 l -17.295593528826398 5.950725415004791" fill="#ffd113" stroke="none" /><path d="M 119.85752413597 93.16781622104841 l 25.652611169328804 -8.826042598199225 a48.12849954844536,48.12849954844536 0 0,0 0.26278780975851845,0.7857021029142064 l -25.80073627285909 8.383167392362704" fill="#beff1f" stroke="none" /><path d="M 120.18372546131832 94.20196356495316 l 21.451881092806126 -6.162330557594621 a43.31944265256096,43.31944265256096 0 0,0 0.19970929240284097,0.7184605818132341 l -21.55477715577533 5.792158672362436" fill="#f9ff18" stroke="none" /><path d="M 120.28053869075195 94.5502522615342 l 13.229054782665708 -3.554886410228755 a34.698361501741715,34.698361501741715 0 0,0 0.15003516678325812,0.5781467008122659 l -13.28828628131927 3.3266432838676385" fill="#ff930d" stroke="none" /><path d="M 120.37134235888165 94.90015583598534 l 17.55388925493104 -4.394511569017395 a39.09560056766868,39.09560056766868 0 0,0 0.1578106943925139,0.6542272103154133 l -17.626932749584373 4.091699127042575" fill="#ffcf13" stroke="none" /><path d="M 120.73433829027371 96.67025291283417 l 16.266999244375494 -2.6123328650568203 a37.47542252612566,37.47542252612566 0 0,0 0.09680099109116294,0.6377975844913844 l -16.309556128905957 2.331936168173354" fill="#ffb911" stroke="none" /><path d="M 120.83666639777658 97.38593545837742 l 26.930941036372822 -3.378621929812279 a48.1420461875887,48.1420461875887 0 0,0 0.0960769600669886,0.8231287206432321 l -26.9851083494434 2.914549470844194" fill="#beff1f" stroke="none" /><path d="M 120.87857604477298 97.74499172005257 l 28.22419298118067 -3.048377855410807 a49.38833698877564,49.38833698877564 0 0,0 0.08401396928636995,0.8460092053656115 l -28.27248407614927 2.562093119340761" fill="#afff20" stroke="none" /><path d="M 120.91429891909075 98.10471618934814 l 14.951119895585332 -1.3548919616593964 a36.01238549864534,36.01238549864534 0 0,0 0.05063258432089741,0.6178457763481277 l -14.972226963725724 1.0973322681035" fill="#ffa50f" stroke="none" /><path d="M 120.96714384426684 98.82574320788733 l 13.785132889999206 -0.772031042782371 a34.8067346148884,34.8067346148884 0 0,0 0.02835322087785715,0.5984916801979514 l -13.79637971911056 0.5346282559614197" fill="#ff950d" stroke="none" /><path d="M 120.98425023603335 99.18683210126433 l 27.284127709810875 -1.0572966176568266 a48.30460585730873,48.30460585730873 0 0,0 0.02504549084638165,0.831137910148328 l -27.298284895112904 0.5874885600834995" fill="#bcff1f" stroke="none" /><line stroke="#e1ed5e" stroke-width="0.3" x1="184.98032266829074" x2="189.97916517819016" y1="98.17113171792111" y2="98.06355123074" /><path d="M 185.9800911702706 98.14961562048488 a86.0,86.0 0 0,1 -9.607161424134198,41.387399972396054" fill="none" id="id16" stroke="none" /><text fill="#e1ed5e" style="font-size:6.75px; font-family:Arial;" text-anchor="middle"><textPath startOffset="21.466115282336823" xlink:href="#id16">April</textPath></text><path d="M 120.99513854157772 99.54816195383933 l 10.978363631662294 -0.23626623675515218 a31.98090568958844,31.98090568958844 0 0,0 0.007107364724872356,0.5504732305320988 l -10.980804003504883 0.04725674816259065" fill="#ff6d0a" stroke="none" /><path d="M 120.9764740272857 100.99374915477107 l 27.23612883635703 1.2902969286048238 a48.26667526770739,48.26667526770739 0 0,0 -0.046459316080333574,0.8295622982175762 l -27.20988316938917 -1.7589309431578235" fill="#bcff1f" stroke="none" /><path d="M 120.89721153311464 102.0752229133903 l 13.74185101074511 1.3646511662431116 a34.80944394271707,34.80944394271707 0 0,0 -0.0643439285659251,0.5957448660075086 l -13.716324780678134 -1.6009923541354116" fill="#ff950d" stroke="none" /><path d="M 120.8583938346157 102.4346265915055 l 17.392310586133565 2.03005956146305 a38.510385756676556,38.510385756676556 0 0,0 -0.08251948749391055,0.6577615069744508 l -17.354789589392805 -2.3291388227248957" fill="#ffc712" stroke="none" /><path d="M 120.64145759157962 103.86396538481128 l 6.841427500034584 1.280676954403326 a27.960263191846213,27.960263191846213 0 0,0 -0.09262844687022917,0.47231045499404056 l -6.818369120188691 -1.3982511364653116" fill="#ff3304" stroke="none" /><path d="M 120.41448212921028 104.9243191809786 l 26.419516222178867 6.372835208927411 a48.17726744936137,48.17726744936137 0 0,0 -0.2014009042968943,0.8044964984950981 l -26.30590400358691 -6.826659546819905" fill="#beff1f" stroke="none" /><path d="M 120.32669344350535 105.2749913415812 l 13.392907162428305 3.47560066848861 a34.83653722100374,34.83653722100374 0 0,0 -0.15562297953779233,0.5791310000295188 l -13.331096106548735 -3.7056226016936766" fill="#ff950d" stroke="none" /><path d="M 120.13307415673323 105.97154293290107 l 26.45534257338768 7.846750712372269 a48.59450393497613,48.59450393497613 0 0,0 -0.24476178665075526,0.7998956805968653 l -26.31635401423079 -8.300973365521191" fill="#b9ff1f" stroke="none" /><path d="M 120.02730092923936 106.31721596034902 l 9.828906300454976 3.1003340876232315 a31.30628306025029,31.30628306025029 0 0,0 -0.16653116236708376,0.5125302168438364 l -9.774082887071645 -3.2690632044448633" fill="#ff6309" stroke="none" /><path d="M 119.54520255179757 107.68017299344265 l 12.64096250705215 4.967192261144111 a34.58186040510902,34.58186040510902 0 0,0 -0.22247233023076285,0.5521580788097443 l -12.553587562563996 -5.184049707796668" fill="#ff910d" stroke="none" /><path d="M 119.26925614724726 108.34839909993367 l 25.178560993332518 10.908603545881592 a48.4400722487421,48.4400722487421 0 0,0 -0.3380630687768768,0.7622429740481533 l -24.98705683982437 -11.340394856422433" fill="#baff1f" stroke="none" /><line stroke="#e1ed5e" stroke-width="0.3" x1="174.80103733775053" x2="179.2010983576182" y1="140.37084112569926" y2="142.7455964860345" /><path d="M 175.68104954172406 140.8457921977663 a86.0,86.0 0 0,1 -30.038265399797805,32.042727171017184" fill="none" id="id17" stroke="none" /><text fill="#e1ed5e" style="font-size:6.75px; font-family:Arial;" text-anchor="middle"><textPath startOffset="22.206326154141568" xlink:href="#id17">May</textPath></text><path d="M 118.12598468904814 110.60418214915192 l 11.832987037360805 6.922611492027967 a34.70919881305638,34.70919881305638 0 0,0 -0.30613368616049685,0.5130976667817211 l -11.712072475502081 -7.125271252695792" fill="#ff930d" stroke="none" /><path d="M 117.94076556474637 110.91462005526583 l 11.716701753160379 7.128087565443891 a34.71461746871371,34.71461746871371 0 0,0 -0.3149696261042951,0.5078313257923817 l -11.59226748738812 -7.328715222601546" fill="#ff930d" stroke="none" /><path d="M 117.75023020441432 111.22182372390056 l 11.50753538603819 7.275146976209557 a34.61437233905303,34.61437233905303 0 0,0 -0.32272979815440656,0.5008838136245023 l -11.380600724506733 -7.472152389755512" fill="#ff920d" stroke="none" /><path d="M 117.35343817320211 111.8261652097733 l 8.608433721579418 5.866546927051774 a31.417365501225646,31.417365501225646 0 0,0 -0.30839748684658347,0.44426958117395443 l -8.506175327570698 -6.013857770412748" fill="#ff6509" stroke="none" /><path d="M 117.14729908036423 112.12312394758627 l 12.25818400261879 8.666524292810674 a36.01238549864534,36.01238549864534 0 0,0 -0.36221635914636663,0.5030868425162642 l -12.107187851096821 -8.87624474077807" fill="#ffa50f" stroke="none" /><path d="M 116.93607887273984 112.41649034213515 l 20.414628423172275 14.966748711981499 a46.31324990323829,46.31324990323829 0 0,0 -0.4768913568718999,0.6388739050016474 l -20.15397579960528 -15.315935496492461" fill="#d4ff1c" stroke="none" /><path d="M 116.498646956653 112.99209946851258 l 13.740003367977698 10.819765458553563 a38.48871113404722,38.48871113404722 0 0,0 -0.41436229407157077,0.5169806729696009 l -13.551723161851273 -11.054673965101415" fill="#ffc612" stroke="none" /><path d="M 116.0416608686014 113.55231037782055 l 8.017725997285744 6.773532499506749 a31.495936008256997,31.495936008256997 0 0,0 -0.35344063040119944,0.4111313020574425 l -7.899942857313766 -6.910540900725719" fill="#ff6609" stroke="none" /><path d="M 115.80600337817218 113.82643327865902 l 7.1209603659627465 6.2291194696267995 a30.460972777706104,30.460972777706104 0 0,0 -0.3486202494392637,0.39167854594290263 l -7.012681266875145 -6.350772185310568" fill="#ff5708" stroke="none" /><path d="M 115.56566222782051 114.09645910891815 l 10.199715966339882 9.236990815919926 a34.76067604180106,34.76067604180106 0 0,0 -0.40546440271124856,0.44005152895095795 l -10.039205155632912 -9.411193599672218" fill="#ff940d" stroke="none" /><path d="M 115.07121518719521 114.62390073753431 l 9.751276501584817 9.461858108467885 a34.58727906076635,34.58727906076635 0 0,0 -0.4182744653000945,0.42370982503455484 l -9.586961411229186 -9.628308427483104" fill="#ff920d" stroke="none" /><path d="M 114.81725581225074 114.88116024355365 l 13.97421493840187 14.034483470568597 a40.805186427557736,40.805186427557736 0 0,0 -0.5020010408035303,0.49131367563967787 l -13.730563945222546 -14.272947249130848" fill="#ffe515" stroke="none" /><path d="M 114.55890576462653 115.13401014063108 l 15.4003958668782 16.008740697075762 a43.21377886724294,43.21377886724294 0 0,0 -0.5405100556659294,0.5110859945687721 l -15.122549976821464 -16.271461328390455" fill="#faff18" stroke="none" /><path d="M 113.48314897796784 116.09983520530334 l 9.920577812069487 11.845872813294408 a36.451296606889436,36.451296606889436 0 0,0 -0.4845069398219231,0.39871622640891785 l -9.715200743702873 -12.014884158560504" fill="#ffab0f" stroke="none" /><path d="M 113.20401910651253 116.32954008644616 l 6.240010577622938 7.717082355393147 a30.924267836408205,30.924267836408205 0 0,0 -0.41680391925224547,0.33113424145858494 l -6.106249165653342 -7.823350510856859" fill="#ff5e08" stroke="none" /><path d="M 112.63410532772338 116.77436683061366 l 17.025316752428157 22.604600896111435 a49.29892917042962,49.29892917042962 0 0,0 -0.6822385599617862,0.5047037766392933 l -16.633693222047807 -22.894314621490494" fill="#b0ff20" stroke="none" /><path d="M 112.34349029814194 116.9893568818739 l 10.690472245055714 14.714172719393558 a39.18771771384338,39.18771771384338 0 0,0 -0.5491368765312519,0.39179458091668334 l -10.435608040675577 -14.89601156215446" fill="#ffd013" stroke="none" /><path d="M 112.04921762599082 117.19931262002967 l 9.496667588334143 13.55574774813073 a37.551283705328345,37.551283705328345 0 0,0 -0.5325900631049978,0.3663203018190937 l -9.261920640606261 -13.717208839314917" fill="#ffba11" stroke="none" /><path d="M 111.7513745106137 117.40417183066458 l 7.597231024730393 11.251748812212645 a34.57644174945168,34.57644174945168 0 0,0 -0.49613127269779095,0.3288087543326789 l -7.402425053292638 -11.380855587636642" fill="#ff910d" stroke="none" /><path d="M 111.45004920935366 117.60387380957326 l 7.6210558471236745 11.716989418602566 a34.97742226809444,34.97742226809444 0 0,0 -0.5075360515513002,0.3239335213371988 l -7.418237993525444 -11.846437368763572" fill="#ff970d" stroke="none" /><line stroke="#e1ed5e" stroke-width="0.3" x1="143.8653032363475" x2="146.44561519142675" y1="172.8068346515853" y2="177.08958963109032" /><path d="M 144.38136562736335 173.6633856474863 a86.0,86.0 0 0,1 -40.68145358897372,12.25698825130547" fill="none" id="id18" stroke="none" /><text fill="#e1ed5e" style="font-size:6.75px; font-family:Arial;" text-anchor="middle"><textPath startOffset="21.466115282336833" xlink:href="#id18">June</textPath></text><path d="M 110.8373102113329 117.98757091392108 l 28.10486034808448 46.64793741978164 a75.46019868404076,75.46019868404076 0 0,0 -1.1183637280502516,0.6607490032866067 l -27.297728749005845 -47.124804995362" fill="#42ffd6" stroke="none" /><path d="M 109.89434966115114 118.52300852407294 l 9.087585503513735 17.012681935605105 a40.287704812282286,40.287704812282286 0 0,0 -0.6145008746524333,0.32147781451323204 l -8.793393726334806 -17.16658916906305" fill="#ffde14" stroke="none" /><path d="M 107.93186726928326 119.44442032107085 l 3.872298509478502 9.492670170936922 a31.252096503676945,31.252096503676945 0 0,0 -0.4998533592900365,0.19890196745916594 l -3.708324074146599 -9.557918982802157" fill="#ff6309" stroke="none" /><path d="M 107.59598834532513 119.57807347666477 l 5.573266123063349 14.364663122409059 a36.40794736163076,36.40794736163076 0 0,0 -0.5862195811409402,0.22165808477191257 l -5.325176321162134 -14.458469457287602" fill="#ffab0f" stroke="none" /><path d="M 107.2578585660854 119.70592522655815 l 3.8335276699204806 10.40847089117908 a32.0919881305638,32.0919881305638 0 0,0 -0.5200131343492184,0.1864582087965001 l -3.653794974941527 -10.47291664101554" fill="#ff6f0a" stroke="none" /><path d="M 106.91757812671514 119.82793768551818 l 5.255788619304018 15.06473036124585 a36.95523158302154,36.95523158302154 0 0,0 -0.6024235379610662,0.20437477212096525 l -4.995695348405725 -15.152968120264937" fill="#ffb210" stroke="none" /><path d="M 105.88484417918355 120.15858648285463 l 6.366200289311584 21.80747615259142 a43.71771384337505,43.71771384337505 0 0,0 -0.7241919070396183,0.20466386668683487 l -5.989877214167359 -21.913828812616774" fill="#f4ff19" stroke="none" /><path d="M 104.83641907484287 120.43548508189849 l 5.438553561647583 22.979704292843156 a44.614501354663915,44.614501354663915 0 0,0 -0.7488434653525662,0.17043433468923633 l -5.042189946902155 -23.069915361110077" fill="#e9ff1a" stroke="none" /><path d="M 104.13013068566511 120.58985236759428 l 8.51070149805742 42.42821855440791 a64.27338407947362,64.27338407947362 0 0,0 -1.086625374727836,0.20825433925677855 l -7.77910850875788 -42.56843009201316" fill="#33ff57" stroke="none" /><path d="M 102.70371172650421 120.8252237178851 l 1.6401564363337355 12.633234669267924 a33.7392594503935,33.7392594503935 0 0,0 -0.5765759515857517,0.0698153181245265 l -1.4224530616966036 -12.659595516117802" fill="#ff860c" stroke="none" /><path d="M 102.34483914955558 120.86867818915974 l 1.5531420711931867 13.82270595060587 a34.90968907237776,34.90968907237776 0 0,0 -0.5977326787171733,0.061957436130506124 l -1.3149767958704108 -13.847392755192136" fill="#ff960d" stroke="none" /><path d="M 101.26447882468166 120.96189622390904 l 0.7178050352985831 11.899412125557962 a32.921042446135985,32.921042446135985 0 0,0 -0.5659471011105418,0.0292530006492691 l -0.5128698657745616 -11.910004932969432" fill="#ff7a0b" stroke="none" /><line stroke="#e1ed5e" stroke-width="0.3" x1="102.19456741930631" x2="102.32365962044197" y1="184.97166512339345" y2="189.96999836594603" /><path d="M 102.22038585953345 185.97133177190398 a86.0,86.0 0 0,1 -42.740103519485714,-10.115201625700543" fill="none" id="id19" stroke="none" /><text fill="#e1ed5e" style="font-size:6.75px; font-family:Arial;" text-anchor="middle"><textPath startOffset="22.20632615414155" xlink:href="#id19">July</textPath></text><path d="M 100.54218724476979 120.99299961872073 l 0.413478106545511 16.009498225552605 a37.01483679525222,37.01483679525222 0 0,0 -0.6370787661832499,0.010967888712697809 l -0.13783965046959315 -16.014243591544464" fill="#ffb310" stroke="none" /><path d="M 99.81925306533755 120.99922214144158 l -0.17307492569535424 20.107886302900194 a41.10863114436847,41.10863114436847 0 0,0 -0.7075388756623081,-0.012180923396117984 l 0.5191734912503302 -20.10192790222492" fill="#ffe915" stroke="none" /><path d="M 99.09653310690486 120.98055641714683 l -0.5474885817143413 12.713930265944867 a33.72571281125016,33.72571281125016 0 0,0 -0.5797802250533982,-0.029968015149543392 l 0.7662568751812285 -12.702622444033121" fill="#ff860c" stroke="none" /><path d="M 98.73552117531835 120.96189622390904 l -0.8461942541122058 14.0277842489248 a35.05328344729712,35.05328344729712 0 0,0 -0.6019771127650887,-0.041515866165437044 l 1.0875341276562245 -14.011140038243077" fill="#ff980e" stroke="none" /><path d="M 97.2962882734958 120.8252237178851 l -1.6342264789926653 12.587559426950284 a33.693200877306154,33.693200877306154 0 0,0 -0.5745034240743864,-0.07962093968958397 l 1.8506584942538826 -12.557563921768095" fill="#ff850c" stroke="none" /><path d="M 96.93821686468263 120.77559828337769 l -1.7811353576501086 12.085817657044258 a33.21635917946072,33.21635917946072 0 0,0 -0.5649377257333996,-0.08823165422841998 l 1.9889089469920254 -12.053367695468731" fill="#ff7e0b" stroke="none" /><path d="M 95.16358092515715 120.4354850818985 l -2.907716796383393 12.286074117100632 a33.62546768158947,33.62546768158947 0 0,0 -0.5621004751712054,-0.1381506209604663 l 3.118770556297809 -12.234202237826135" fill="#ff840c" stroke="none" /><path d="M 94.81253420990036 120.34920634021253 l -2.578005189454756 10.112907085859717 a31.43633079602632,31.43633079602632 0 0,0 -0.5232046693405096,-0.13818310850606919 l 2.751700301606755 -10.067032628050066" fill="#ff6509" stroke="none" /><path d="M 94.46302465271185 120.25689768951611 l -11.45255951073715 41.89892707499966 a64.43594374919365,64.43594374919365 0 0,0 -1.067393165909943,-0.3016559705883043 l 12.172083844751707 -41.69558231107283" fill="#34ff59" stroke="none" /><path d="M 92.7421414339146 119.70592522655815 l -6.772815250741283 18.388976540278037 a40.59656818475035,40.59656818475035 0 0,0 -0.6536623161047503,-0.24715915628979587 l 7.088347787606317 -18.26966913388161" fill="#ffe215" stroke="none" /><path d="M 92.40401165467489 119.57807347666478 l -4.5462249947056135 11.717543911527276 a33.56857179718746,33.56857179718746 0 0,0 -0.5369036082881407,-0.21364502616550576 l 4.747249679035613 -11.637552040955704" fill="#ff830c" stroke="none" /><path d="M 92.06813273071674 119.44442032107085 l -8.259334373678902 20.247183126224076 a42.866984905173524,42.866984905173524 0 0,0 -0.6808268052936591,-0.28458565982943934 l 8.606632638470023 -20.102012423374664" fill="#ffff18" stroke="none" /><path d="M 91.7346041902142 119.30500536409082 l -3.5371330023299548 8.261476298889077 a29.98684040768933,29.98684040768933 0 0,0 -0.47276299482493833,-0.20724540370752198 l 3.678816671812636 -8.199366341887103" fill="#ff5007" stroke="none" /><path d="M 91.40352486487194 119.15986991738527 l -9.022361659691228 20.109088089011635 a43.04038188620823,43.04038188620823 0 0,0 -0.6733401392386498,-0.3090974326761572 l 9.367169794697297 -19.950803586001406" fill="#fdff18" stroke="none" /><path d="M 90.7491055286396 118.85261126421891 l -9.9073248621807 20.19036590172638 a43.490130305766996,43.490130305766996 0 0,0 -0.6692221744131504,-0.33556189107520096 l 10.25340094427661 -20.016836169741875" fill="#f7ff19" stroke="none" /><path d="M 90.42595943632237 118.69057910512821 l -7.580426646792622 14.798617464607384 a37.62714488453103,37.62714488453103 0 0,0 -0.5739198484985201,-0.3002477396072472 l 7.834037397817638 -14.66594030605542" fill="#ffbb11" stroke="none" /><line stroke="#e1ed5e" stroke-width="0.3" x1="58.666819895761336" x2="56.23545636021788" y1="174.27360380694188" y2="178.64263932499728" /><path d="M 58.180547188652646 175.14741091055294 a86.0,86.0 0 0,1 -31.652253787137756,-30.449443065178592" fill="none" id="id20" stroke="none" /><text fill="#e1ed5e" style="font-size:6.75px; font-family:Arial;" text-anchor="middle"><textPath startOffset="22.20632615414155" xlink:href="#id20">August</textPath></text><path d="M 89.7882731507175 118.34994917583269 l -1.7403807467297352 3.127374901467552 a24.579022061669463,24.579022061669463 0 0,0 -0.36792599490269745,-0.2089179821843747 l 1.7939555085536398 -3.096953753488544" fill="#ff0000" stroke="none" /><path d="M 88.8546689885994 117.79835938074946 l -16.990482677165456 27.132681517602318 a53.01341762353245,53.01341762353245 0 0,0 -0.7692453850274608,-0.49096880031023393 l 17.45500986423984 -26.83619828846828" fill="#86ff25" stroke="none" /><path d="M 88.54995079064634 117.60387380957326 l -13.132619980796562 20.19074160329071 a45.08592439685202,45.08592439685202 0 0,0 -0.6469299881651782,-0.42874992014183594 l 13.478224667701703 -19.961693662057556" fill="#e3ff1b" stroke="none" /><path d="M 87.95078237400918 117.19931262002967 l -15.560917099234691 22.211988043671408 a48.120371564959356,48.120371564959356 0 0,0 -0.674310015491668,-0.48110229201197535 l 15.940954442575247 -21.94084148981521" fill="#beff1f" stroke="none" /><path d="M 85.97065885151581 115.62618273729859 l -17.46834878390155 19.456623609556008 a47.14772287446781,47.14772287446781 0 0,0 -0.5992261179432068,-0.5473788512269907 l 17.800674451311615 -19.153051991742444" fill="#caff1d" stroke="none" /><path d="M 85.70375840098266 115.38237550388516 l -16.393367995363963 17.63882769688186 a45.080505741194685,45.080505741194685 0 0,0 -0.563858734559566,-0.5331636278137605 l 16.69456256431435 -17.354029432322168" fill="#e3ff1b" stroke="none" /><path d="M 85.44109423537348 115.13401014063109 l -15.693414741769395 16.313334372980616 a43.63643400851503,43.63643400851503 0 0,0 -0.5368321335357319,-0.5254032308513861 l 15.97189682768092 -16.040781039206664" fill="#f5ff19" stroke="none" /><path d="M 84.43433777217949 114.09645910891817 l -30.639312167443876 27.747345713425947 a62.33621468197652,62.33621468197652 0 0,0 -0.7134265497730657,-0.8015422916529735 l 31.11239756686528 -27.215829252032112" fill="#31ff3f" stroke="none" /><path d="M 84.19399662182784 113.82643327865904 l -5.71389775069519 4.998279711882675 a28.591536575925687,28.591536575925687 0 0,0 -0.3208480836665684,-0.37321880693437887 l 5.799088343932537 -4.899183805786766" fill="#ff3c05" stroke="none" /><path d="M 83.50135304334701 112.99209946851258 l -20.493997277597085 16.138296178923902 a47.08540833440846,47.08540833440846 0 0,0 -0.4959510158130807,-0.6410835428081256 l 20.768755110628234 -15.783134642002523" fill="#cbff1d" stroke="none" /><path d="M 83.28015986056508 112.70617746262583 l -11.75414900268106 8.932519803102592 a35.76312733840795,35.76312733840795 0 0,0 -0.3682558740323671,-0.4933389227812069 l 11.906166143408512 -8.728868000812078" fill="#ffa20e" stroke="none" /><path d="M 83.06392112726016 112.41649034213515 l -14.51507830623284 10.641561778196849 a38.998064765836666,38.998064765836666 0 0,0 -0.3922466350852156,-0.5447962692731669 l 14.696104733693664 -10.390131903472543" fill="#ffcd13" stroke="none" /><path d="M 82.85270091963577 112.12312394758628 l -7.860192701913831 5.55714867575462 a30.626241775254805,30.626241775254805 0 0,0 -0.3006316998373421,-0.4330823857873835 l 7.954685308913307 -5.421025027780224" fill="#ff5a08" stroke="none" /><path d="M 82.6465618267979 111.8261652097733 l -29.969439219001842 20.423822409756852 a57.26706231454006,57.26706231454006 0 0,0 -0.5481191279748926,-0.8193637265425835 l 30.316561452387464 -19.904921769008446" fill="#57ff2a" stroke="none" /><path d="M 82.24976979558568 111.22182372390057 l -53.25069061324296 33.6654711717017 a84.0,84.0 0 0,0 -0.7621414413281764,-1.2288146745389432 l 53.82229669423909 -32.743860165797486" fill="#4dd2ff" stroke="none" /><line stroke="#e1ed5e" stroke-width="0.3" x1="26.63291911575756" x2="22.317208475507996" y1="142.92168965132927" y2="145.44649492493687" /><path d="M 25.769776987707644 143.4266507060508 a86.0,86.0 0 0,1 -11.730757126820373,-40.83630448921669" fill="none" id="id21" stroke="none" /><text fill="#e1ed5e" style="font-size:6.75px; font-family:Arial;" text-anchor="middle"><textPath startOffset="21.46611528233685" xlink:href="#id21">September</textPath></text><line stroke="#e1ed5e" stroke-width="0.3" x1="15.007084014347285" x2="10.007500721073583" y1="101.09737516637583" y2="101.16192664675087" /><path d="M 14.007167355692545 101.11028546245083 a86.0,86.0 0 0,1 10.666146001902534,-42.60595125391555" fill="none" id="id22" stroke="none" /><text fill="#e1ed5e" style="font-size:6.75px; font-family:Arial;" text-anchor="middle"><textPath startOffset="22.20632615414155" xlink:href="#id22">October</textPath></text><line stroke="#e1ed5e" stroke-width="0.3" x1="26.266209847984243" x2="21.928928074336255" y1="57.711370442889674" y2="55.22380399835377" /><path d="M 25.398753493254645 57.213857153982495 a86.0,86.0 0 0,1 29.58750427330803,-30.492523968695096" fill="none" id="id23" stroke="none" /><text fill="#e1ed5e" style="font-size:6.75px; font-family:Arial;" text-anchor="middle"><textPath startOffset="21.46611528233685" xlink:href="#id23">November</textPath></text><line stroke="#e1ed5e" stroke-width="0.3" x1="56.762969772571076" x2="54.21961505331055" y1="26.818313649435495" y2="22.513508569990535" /><path d="M 56.25429882871897 25.957352633546506 a86.0,86.0 0 0,1 42.265352541879196,-11.944610805530505" fill="none" id="id24" stroke="none" /><text fill="#e1ed5e" style="font-size:6.75px; font-family:Arial;" text-anchor="middle"><textPath startOffset="22.20632615414155" xlink:href="#id24">December</textPath></text></svg>