<?xml version="1.0" encoding="utf-8" ?>
<svg baseProfile="full" height="200mm" version="1.1" viewBox="0,0,200,200" width="200mm" xmlns="http://www.w3.org/2000/svg" xmlns:ev="http://www.w3.org/2001/xml-events" xmlns:xlink="http://www.w3.org/1999/xlink"><defs /><rect fill="#1a1a1a" height="200" width="200" x="0" y="0" /><text alignment-baseline="middle" fill="#e1ed5e" style="dominant-baseline: central; font-size:9.0px; font-family:Arial;" text-anchor="middle" x="100.0" y="100.0">2023</text><line stroke="#e1ed5e" stroke-width="0.3" x1="100.0" x2="100.0" y1="15.0" y2="10.0" /><path d="M 100.0 14.0 a86.0,86.0 0 0,1 42.46469731375804,11.215312516191453" fill="none" id="id13" stroke="none" /><text fill="#e1ed5e" style="font-size:6.75px; font-family:Arial;" text-anchor="middle"><textPath startOffset="22.20632615414155" xlink:href="#id13">January</textPath></text><path d="M 100.72285384407766 79.0124445844662 l 0.8766594204728725 -25.45319267299552 a46.46828515994229,46.46828515994229 0 0,0 0.7991641518409494,0.03441368946472021 l -1.3146644047031533 25.434331257006605" fill="#d6ff1c" stroke="none" /><path d="M 101.08401301168833 79.027996857942 l 0.9038924475850992 -17.48727648694264 a38.510621362121285,38.510621362121285 0 0,0 0.661718748105777,0.039916681961257194 l -1.2047732445304882 17.469126535601077" fill="#ffc111" stroke="none" /><path d="M 101.44485096284872 79.0497635885617 l 1.7587489855719822 -25.501735461672173 a46.562310332819266,46.562310332819266 0 0,0 0.7991196880906332,0.06202706778380801 l -2.1974588630249565 25.4676831316999" fill="#d5ff1c" stroke="none" /><path d="M 102.16513564639614 79.11191278185805 l 2.8846573676003584 -27.829653439583073 a48.978757275757424,48.978757275757424 0 0,0 0.8378476397222556,0.09414194464908672 l -3.3632717108323393 27.775875541463385" fill="#b8ff1f" stroke="none" /><path d="M 102.88285421437855 79.19881850522331 l 3.851645827637959 -27.79147953951159 a49.05711158648823,49.05711158648823 0 0,0 0.8354449920905234,0.12312287484470329 l -4.329459800157138 27.721062180505918" fill="#b7ff1f" stroke="none" /><path d="M 103.2404852339499 79.25152402106235 l 4.3193035606795585 -27.656032879144146 a48.991293965474355,48.991293965474355 0 0,0 0.8320839862356891,0.13730098729959908 l -4.794716753054122 27.57758562890492" fill="#b8ff1f" stroke="none" /><path d="M 103.59715602781102 79.31037775812273 l 3.482625414518205 -20.030880973542292 a41.33137654843043,41.33137654843043 0 0,0 0.6998875786740478,0.1278999814338631 l -3.826908114295154 19.96796551075769" fill="#ffe615" stroke="none" /><path d="M 104.307194497241 79.44645832069477 l 5.734069187909519 -27.362458352231613 a48.956818068752796,48.956818068752796 0 0,0 0.8233074525367656,0.1799431205278051 l -6.204219364599812 27.259701733607937" fill="#b8ff1f" stroke="none" /><path d="M 105.01212808612495 79.60689891045804 l 7.907547783457569 -32.17384283630885 a54.13133674941545,54.13133674941545 0 0,0 0.9029393384246611,0.23017934214746935 l -8.460196010567255 32.03296049799251" fill="#7cff26" stroke="none" /><path d="M 105.71112130821622 79.79150937346287 l 9.081083491030629 -32.13291763620613 a54.39147306104174,54.39147306104174 0 0,0 0.8987796773625796,0.2623784339836595 l -9.632853386116636 31.971840873303766" fill="#79ff26" stroke="none" /><path d="M 106.40334571778207 80.00007090966166 l 10.057531018447616 -31.413251143732264 a53.98403064524153,53.98403064524153 0 0,0 0.8825545259572938,0.2909643513433405 l -10.596768366647328 31.23547306812969" fill="#7eff26" stroke="none" /><path d="M 106.74666289553966 80.11325718540242 l 7.544810468575488 -22.239395638492567 a44.4843540122382,44.4843540122382 0 0,0 0.7230147886665245,0.25224566299822926 l -7.926507261305286 22.10622912232213" fill="#efff19" stroke="none" /><path d="M 107.76421540070413 80.48803036053334 l 10.315463732710047 -25.92341978964214 a48.900402965026615,48.900402965026615 0 0,0 0.7794168407629644,0.3179436993386002 l -10.760164443061399 25.74201520411996" fill="#b9ff1f" stroke="none" /><path d="M 108.09893153111575 80.62456947434976 l 10.754120764987334 -25.72755664693948 a48.88473210288045,48.88473210288045 0 0,0 0.7735804987550653,0.3312067980481116 l -11.195385021532715 25.538630320928576" fill="#b9ff1f" stroke="none" /><path d="M 109.08828744355905 81.06846463323043 l 14.436094213491721 -30.071389121217127 a54.356997164320184,54.356997164320184 0 0,0 0.8400194008978277,0.41219387185636 l -14.95158488139998 29.818440089225934" fill="#7aff26" stroke="none" /><path d="M 109.41281617654863 81.2277094730956 l 12.493135802902378 -24.91547380564561 a48.872195413163524,48.872195413163524 0 0,0 0.7487674439380138,0.3835477670703559 l -12.920163734429147 24.696733513262753" fill="#b9ff1f" stroke="none" /><path d="M 110.05341064243156 81.56283822128135 l 11.532338818625282 -21.149399347977447 a45.089249291080044,45.089249291080044 0 0,0 0.6782194139465717,0.37742836956868786 l -11.89468232164389 20.94775558084858" fill="#e8ff1a" stroke="none" /><path d="M 110.36928655335952 81.73862282372117 l 14.862936380050469 -26.17515542524977 a51.10059201034774,51.10059201034774 0 0,0 0.7611634358949005,0.4409149917705839 l -15.311296548410699 25.915436276089135" fill="#9fff22" stroke="none" /><line stroke="#e1ed5e" stroke-width="0.3" x1="143.23703022742887" x2="145.7803849466894" y1="26.81831364943548" y2="22.513508569990506" /><path d="M 143.74570117128098 25.957352633546492 a86.0,86.0 0 0,1 28.547481713284135,27.462654790039103" fill="none" id="id14" stroke="none" /><text fill="#e1ed5e" style="font-size:6.75px; font-family:Arial;" text-anchor="middle"><textPath startOffset="19.985693538727396" xlink:href="#id14">February</textPath></text><path d="M 110.68208982089419 81.91981866633111 l 14.04545216487904 -23.772906454846456 a48.61205910153724,48.61205910153724 0 0,0 0.7167684541479086,0.43184497364714225 l -14.452582685244586 23.5276148717407" fill="#bcff1f" stroke="none" /><path d="M 111.2981086023043 82.29822771554956 l 17.68824823215343 -27.713784079978875 a53.87746878264763,53.87746878264763 0 0,0 0.777459505162872,0.5056812886010139 l -18.162674763100583 27.405203867218333" fill="#7fff26" stroke="none" /><path d="M 111.90073688211348 82.69761687909136 l 8.91089949816874 -12.95548322734172 a36.724143077458834,36.724143077458834 0 0,0 0.51775596146239,0.3627211386081357 l -9.13258659921478 12.80017724596965" fill="#ffa90f" stroke="none" /><path d="M 112.48926042617603 83.11751280151076 l 16.835431098336684 -22.75746844088675 a49.30784538082682,49.30784538082682 0 0,0 0.6779919049333664,0.5106494465495508 l -17.224669157028433 22.464302404831354" fill="#b4ff20" stroke="none" /><path d="M 112.77801427241765 83.33499621200491 l 18.07331594344093 -23.57110206937409 a50.70255211183523,50.70255211183523 0 0,0 0.6880274629621674,0.537016348152753 l -18.47637596156253 23.25650733199811" fill="#a4ff21" stroke="none" /><path d="M 113.06298171725822 83.55741782278167 l 19.32445273092833 -24.323995006306347 a52.06591711855131,52.06591711855131 0 0,0 0.6969310644117931,0.5635364524475185 l -19.74028719390461 23.9877524565947" fill="#94ff23" stroke="none" /><path d="M 113.34407831869373 83.78471172551755 l 16.635453887276558 -20.21486039850036 a47.17974230137804,47.17974230137804 0 0,0 0.6226433327160967,0.5214458848860811 l -16.98095475695177 19.925513356220456" fill="#ceff1d" stroke="none" /><path d="M 113.89432698308785 84.25364557470407 l 21.373388619673612 -24.22232850030226 a53.303915228098106,53.303915228098106 0 0,0 0.6827698816415798,0.6129975411458587 l -21.787169488911182 23.850831950387107" fill="#86ff25" stroke="none" /><path d="M 114.16331599549186 84.49514656593476 l 12.579358264141884 -13.77086455193108 a39.65146012636187,39.65146012636187 0 0,0 0.4999711446420767,0.4646686901210434 l -12.814537292578809 13.552291275735396" fill="#ffd013" stroke="none" /><path d="M 114.42810811169701 84.74124197986012 l 19.091528757520376 -20.190659460707455 a48.78757275757425,48.78757275757425 0 0,0 0.6052371527060186,0.5822376613744223 l -19.436249153838812 19.85903871257073" fill="#baff1f" stroke="none" /><path d="M 114.68862486808459 84.99185889309783 l 21.977035615523807 -22.455093964981 a52.42007860305458,52.42007860305458 0 0,0 0.6394355947865492,0.6366896551305729 l -22.36030701047768 22.07346845920031" fill="#90ff24" stroke="none" /><path d="M 115.19652480421416 85.50635884689758 l 21.017789467288086 -20.045655325476353 a50.044375901696434,50.044375901696434 0 0,0 0.5891716702139638,0.6284872589775344 l -21.359728459472514 19.680898649620765" fill="#abff21" stroke="none" /><path d="M 115.68641384162765 86.03803664274999 l 23.59400209381477 -21.00024875096249 a52.58618974180389,52.58618974180389 0 0,0 0.5959971915232581,0.6813278184430935 l -23.951991148915877 20.59100537631645" fill="#8eff24" stroke="none" /><path d="M 116.15771136456269 86.58626213691792 l 24.26912200979438 -20.147633130798162 a52.542311327794636,52.542311327794636 0 0,0 0.5717141603900885,0.7008539603949944 l -24.612334662260878 19.726895000795068" fill="#8eff24" stroke="none" /><path d="M 116.60985879189232 87.15038557335679 l 26.11336538189051 -20.201657385740948 a54.01537236953386,54.01537236953386 0 0,0 0.5625934064271758,0.7403069764003245 l -26.457234728541803 19.749165633459587" fill="#7eff26" stroke="none" /><path d="M 116.82858285166822 87.43820079747576 l 22.755130685455544 -16.98570729439376 a49.39560220884533,49.39560220884533 0 0,0 0.5027469985445118,0.6857463410162732 l -23.04414029651368 16.591498509705993" fill="#b3ff20" stroke="none" /><path d="M 117.04232023915458 87.72973835380427 l 17.066907438146448 -12.28796412804936 a42.03029700014925,42.03029700014925 0 0,0 0.41767583665837454,0.590772850363247 l -17.275895894608706 11.99236477735432" fill="#ffef16" stroke="none" /><path d="M 117.2510076193507 88.02491185347247 l 18.1229554697691 -12.580365971355747 a43.0614397293667,43.0614397293667 0 0,0 0.4174407429514028,0.6125427807989845 l -18.336820678389238 12.266545167286354" fill="#fffd17" stroke="none" /><path d="M 117.45458315368197 88.32363383020206 l 17.25312734095353 -11.541600886906878 a41.757623998806025,41.757623998806025 0 0,0 0.39451681432484653,0.6008761744595975 l -17.4492407906363 11.242906648469607" fill="#ffec16" stroke="none" /><path d="M 117.65298651832404 88.62581576622439 l 15.080696706266377 -9.716804719287339 a38.940002984926124,38.940002984926124 0 0,0 0.3581968561327543,0.5665814052409528 l -15.245721158645086 9.45577566633218" fill="#ffc712" stroke="none" /><line stroke="#e1ed5e" stroke-width="0.3" x1="172.23445277983987" x2="176.4835382374775" y1="55.19839476539836" y2="52.563006222186495" /><path d="M 173.08426987136738 54.67131705675599 a86.0,86.0 0 0,1 12.851231095245387,41.99856678651699" fill="none" id="id15" stroke="none" /><text fill="#e1ed5e" style="font-size:6.75px; font-family:Arial;" text-anchor="middle"><textPath startOffset="22.20632615414155" xlink:href="#id15">March</textPath></text><path d="M 118.21658344932153 89.55222093294921 l 24.5367890597672 -14.072614210258209 a49.2859061738222,49.2859061738222 0 0,0 0.4157438890795573,0.7395619887227582 l -24.775390590139192 13.648168711600656" fill="#b4ff20" stroke="none" /><path d="M 118.3937258080291 89.86733742301442 l 9.575242368798392 -5.274771464383721 a31.93199343316253,31.93199343316253 0 0,0 0.2610697451563416,0.4837225881520023 l -9.6646202131732 5.1091678928992605" fill="#ff6509" stroke="none" /><path d="M 118.56541770881063 90.18545643968196 l 14.477534579653089 -7.653498348738142 a37.37605094273917,37.37605094273917 0 0,0 0.2957879567814376,0.5713681850860108 l -14.607131969594644 7.403157441391786" fill="#ffb210" stroke="none" /><path d="M 118.73160827565052 90.50648371742162 l 15.842797487405328 -8.029414970405215 a38.76135515645988,38.76135515645988 0 0,0 0.296505885249622,0.5977377716288723 l -15.978663385608357 7.755517610277393" fill="#ffc412" stroke="none" /><path d="M 118.89224826269711 90.83032412892265 l 18.66574053515569 -9.059736470802246 a41.74822148151833,41.74822148151833 0 0,0 0.3082247458280474,0.649199921824206 l -18.818923474825496 8.7370941333375" fill="#ffec16" stroke="none" /><path d="M 119.196687751892 91.48605970444005 l 29.051452236831743 -12.884635778863416 a52.7805084324163,52.7805084324163 0 0,0 0.36119282861737856,0.8336828474374529 l -29.2689357752918 12.38265378683936" fill="#8cff24" stroke="none" /><path d="M 119.34039704204932 91.81776055985345 l 26.31317736958186 -11.132176718030335 a49.571115864882344,49.571115864882344 0 0,0 0.3257018545812059,0.7887128753077568 l -26.500900911049264 10.677589272269275" fill="#b1ff20" stroke="none" /><path d="M 119.61058180528143 92.48833698450437 l 14.675009776381438 -5.621135022092699 a36.71474056017114,36.71474056017114 0 0,0 0.22097974957899527,0.5921158646524124 l -14.769594114462057 5.367696020410953" fill="#ffa90f" stroke="none" /><path d="M 119.7369772167798 92.82701384747503 l 19.88622454462173 -7.227226931351086 a42.158798069747775,42.158798069747775 0 0,0 0.24200539162235438,0.6841818309129096 l -20.007683017053893 6.883847474011562" fill="#fff116" stroke="none" /><path d="M 119.85752413597 93.16781622104841 l 29.675148874205398 -10.210037736228378 a52.38246853390379,52.38246853390379 0 0,0 0.2860150286196433,0.8551485308927504 l -29.84650119659681 9.697716102413313" fill="#90ff24" stroke="none" /><path d="M 120.18372546131832 94.20196356495316 l 24.815710215960447 -7.128634020981432 a46.81931247201632,46.81931247201632 0 0,0 0.2158442304894502,0.7765065388428273 l -24.93474121701626 6.700416178719652" fill="#d2ff1c" stroke="none" /><path d="M 120.28053869075195 94.5502522615342 l 15.303477979270959 -4.1123214614720265 a36.84637580219889,36.84637580219889 0 0,0 0.159323146672618,0.613937076131416 l -15.37199745781388 3.84828795979176" fill="#ffaa0f" stroke="none" /><path d="M 120.37134235888165 94.90015583598534 l 20.306481610114503 -5.083606662074598 a41.933137654843044,41.933137654843044 0 0,0 0.16926450739422066,0.7017106597509953 l -20.390978917769544 4.733310770664197" fill="#ffee16" stroke="none" /><path d="M 120.73433829027371 96.67025291283417 l 18.81779679764506 -3.0219678678257917 a40.05890254216208,40.05890254216208 0 0,0 0.10347425610484479,0.6817660631032287 l -18.867026947189203 2.697602692330481" fill="#ffd614" stroke="none" /><path d="M 120.83666639777658 97.38593545837742 l 31.1539312431609 -3.908417279435099 a52.39813939604995,52.39813939604995 0 0,0 0.10457083454081877,0.8958990500132835 l -31.216592430705308 3.371574491096963" fill="#90ff24" stroke="none" /><path d="M 120.87857604477298 97.74499172005257 l 32.64997559282593 -3.5263882529161483 a53.83985871349684,53.83985871349684 0 0,0 0.0915864050528006,0.9222626001267072 l -32.70583912356096 2.963850122085006" fill="#80ff26" stroke="none" /><path d="M 120.91429891909075 98.10471618934814 l 17.29557688334141 -1.5673500216141456 a38.3664494303766,38.3664494303766 0 0,0 0.053942343973577174,0.6582332274246008 l -17.319993711134483 1.2694028769817762" fill="#ffbf11" stroke="none" /><path d="M 120.96714384426684 98.82574320788733 l 15.94675364863199 -0.8930917784099537 a36.97174269936819,36.97174269936819 0 0,0 0.030116814995512328,0.6357183646444785 l -15.959764071860999 0.6184623071424754" fill="#ffac0f" stroke="none" /><path d="M 120.98425023603335 99.18683210126433 l 31.562500454516314 -1.2230893114956567 a52.58618974180389,52.58618974180389 0 0,0 0.027265452443913527,0.9048076279470012 l -31.578877601415872 0.6796115361236564" fill="#8eff24" stroke="none" /><line stroke="#e1ed5e" stroke-width="0.3" x1="184.98032266829074" x2="189.97916517819016" y1="98.17113171792111" y2="98.06355123074" /><path d="M 185.9800911702706 98.14961562048488 a86.0,86.0 0 0,1 -9.607161424134198,41.387399972396054" fill="none" id="id16" stroke="none" /><text fill="#e1ed5e" style="font-size:6.75px; font-family:Arial;" text-anchor="middle"><textPath startOffset="21.466115282336823" xlink:href="#id16">April</textPath></text><path d="M 120.99513854157772 99.54816195383933 l 12.699860182430893 -0.273314700923713 a33.702800855678824,33.702800855678824 0 0,0 0.007490034843166823,0.5801114529112718 l -12.702683224391777 0.05466698995197854" fill="#ff7f0b" stroke="none" /><path d="M 120.9764740272857 100.99374915477107 l 31.50697496800209 1.492625962929604 a52.542311327794636,52.542311327794636 0 0,0 -0.05057484974943977,0.9030479165386077 l -31.476613767365123 -2.034745595803635" fill="#8eff24" stroke="none" /><path d="M 120.89721153311464 102.0752229133903 l 15.89668481930531 1.5786395487115603 a36.97487687179742,36.97487687179742 0 0,0 -0.06834664868786486,0.6328050831229024 l -15.867155869116393 -1.8520409537192541" fill="#ffac0f" stroke="none" /><path d="M 120.8583938346157 102.4346265915055 l 20.11956609419252 2.3483893827521176 a41.25615641012885,41.25615641012885 0 0,0 -0.0884030844157986,0.7046595633645478 l -20.076161500529874 -2.69436670040406" fill="#ffe515" stroke="none" /><path d="M 120.64145759157962 103.86396538481128 l 7.914218877583412 1.4814974986687497 a29.051688970697974,29.051688970697974 0 0,0 -0.09624418804102941,0.49074704132603286 l -7.887544756566719 -1.6175082670627277" fill="#ff3b05" stroke="none" /><path d="M 120.41448212921028 104.9243191809786 l 30.56231086584375 7.372147510730266 a52.43888363762997,52.43888363762997 0 0,0 -0.21921622258960824,0.8756598392760115 l -30.43088332895908 -7.897135189403674" fill="#8fff24" stroke="none" /><path d="M 120.32669344350535 105.2749913415812 l 15.493023742497657 4.020603071706167 a37.006218596089745,37.006218596089745 0 0,0 -0.1653154549436131,0.6152003067039317 l -15.421520211212266 -4.286694311585647" fill="#ffad10" stroke="none" /><path d="M 120.13307415673323 105.97154293290107 l 30.60375507979621 9.077184931833857 a52.92154619173175,52.92154619173175 0 0,0 -0.2665563211745357,0.8711214804439079 l -30.44297198611554 -9.602633384829822" fill="#8aff24" stroke="none" /><path d="M 120.02730092923936 106.31721596034902 l 11.370158609247278 3.586491644172081 a32.92239192079996,32.92239192079996 0 0,0 -0.17512791869683145,0.5389883122730083 l -11.3067384395342 -3.7816788564228845" fill="#ff730a" stroke="none" /><path d="M 119.54520255179757 107.68017299344265 l 14.623168060120571 5.7460883363207795 a36.7116063877419,36.7116063877419 0 0,0 -0.23617343092359727,0.5861630871102698 l -14.522092014939583 -5.996950791273862" fill="#ffa90f" stroke="none" /><path d="M 119.26925614724726 108.34839909993367 l 29.126763781799966 12.619161148817705 a52.74289836326551,52.74289836326551 0 0,0 -0.368092474868996,0.8299513572541994 l -28.905230222199695 -13.118660842564593" fill="#8cff24" stroke="none" /><line stroke="#e1ed5e" stroke-width="0.3" x1="174.80103733775053" x2="179.2010983576182" y1="140.37084112569926" y2="142.7455964860345" /><path d="M 175.68104954172406 140.8457921977663 a86.0,86.0 0 0,1 -30.038265399797805,32.042727171017184" fill="none" id="id17" stroke="none" /><text fill="#e1ed5e" style="font-size:6.75px; font-family:Arial;" text-anchor="middle"><textPath startOffset="22.206326154141568" xlink:href="#id17">May</textPath></text><path d="M 118.12598468904814 110.60418214915192 l 13.688495476829548 8.00813317865411 a36.858912491915824,36.858912491915824 0 0,0 -0.3250940711651582,0.5448763626488413 l -13.548620529966163 -8.242571635189055" fill="#ffab0f" stroke="none" /><path d="M 117.94076556474637 110.91462005526583 l 13.553975715946384 8.245829568641698 a36.865180836774286,36.865180836774286 0 0,0 -0.33448192925907133,0.5392913713304608 l -13.41002914701935 -8.477917271337432" fill="#ffab0f" stroke="none" /><path d="M 117.75023020441432 111.22182372390056 l 13.312010364237898 8.415949088990637 a36.74921645689269,36.74921645689269 0 0,0 -0.3426341836649359,0.5317758619552744 l -13.165171317195911 -8.643846550867364" fill="#ffa90f" stroke="none" /><path d="M 117.35343817320211 111.8261652097733 l 9.95830602098832 6.786469115702449 a33.05089299039849,33.05089299039849 0 0,0 -0.32443243326295507,0.4673691174295532 l -9.84001268056323 -6.956879495319021" fill="#ff750a" stroke="none" /><path d="M 117.14729908036423 112.12312394758627 l 14.180366778413747 10.025505665425928 a38.3664494303766,38.3664494303766 0 0,0 -0.3858937816426229,0.5359727114776707 l -14.00569320439552 -10.26811198235473" fill="#ffbf11" stroke="none" /><path d="M 116.93607887273984 112.41649034213515 l 23.615807906274558 17.313656425038843 a50.28257300631809,50.28257300631809 0 0,0 -0.5177638044856085,0.6936292278601397 l -23.31428283509386 -17.7175985324083" fill="#a8ff21" stroke="none" /><path d="M 116.498646956653 112.99209946851258 l 15.894547451150956 12.51639252812029 a41.23108303069499,41.23108303069499 0 0,0 -0.4438861590390097,0.5538162340182465 l -15.676743380057092 -12.788136595716788" fill="#ffe515" stroke="none" /><path d="M 116.0416608686014 113.55231037782055 l 9.274970529569945 7.8356773897333705 a33.14178399084623,33.14178399084623 0 0,0 -0.3719099830300078,0.43261533173965716 l -9.13871803696916 -7.994169820634555" fill="#ff770a" stroke="none" /><path d="M 115.80600337817218 113.82643327865902 l 8.237584766416182 7.205895976679364 a31.944530122879456,31.944530122879456 0 0,0 -0.36559929129410274,0.41075467946040123 l -8.112326625473742 -7.346624825880632" fill="#ff6509" stroke="none" /><path d="M 115.56566222782051 114.09645910891815 l 11.79911424134626 10.685425970975869 a36.91846176807124,36.91846176807124 0 0,0 -0.4306338010172219,0.46736793979555397 l -11.613434032333316 -10.886945165572758" fill="#ffab0f" stroke="none" /><path d="M 115.07121518719521 114.62390073753431 l 11.280355827638015 10.945554280692688 a36.717874732600364,36.717874732600364 0 0,0 -0.4440404055419206,0.44981058646612404 l -11.090274797040559 -11.138105361139477" fill="#ffa90f" stroke="none" /><path d="M 114.81725581225074 114.88116024355365 l 16.16548529738116 16.235204424711785 a43.91080045768867,43.91080045768867 0 0,0 -0.5402074947362316,0.5287067322054314 l -15.883627850269132 -16.51106125983979" fill="#f6ff19" stroke="none" /><path d="M 114.55890576462653 115.13401014063108 l 17.81530297460419 18.519041213327828 a46.697079747276256,46.697079747276256 0 0,0 -0.5840785470573444,0.5522827225874734 l -17.493888593156036 -18.82295857266122" fill="#d4ff1c" stroke="none" /><path d="M 113.48314897796784 116.09983520530334 l 11.476204958163862 13.703401847049147 a38.87418536391225,38.87418536391225 0 0,0 -0.5167117315980322,0.4252185775495942 l -11.238623098021138 -13.898915543455919" fill="#ffc612" stroke="none" /><path d="M 113.20401910651253 116.32954008644616 l 7.218494898834197 8.927183523703142 a32.480473608278196,32.480473608278196 0 0,0 -0.4377787946578556,0.3477979510263486 l -7.06375861145899 -9.050115388734618" fill="#ff6d0a" stroke="none" /><path d="M 112.63410532772338 116.77436683061366 l 19.695024647739512 26.149185843355014 a53.73643102333217,53.73643102333217 0 0,0 -0.743648309116498,0.5501332409641928 l -19.24199136820445 -26.484329033058977" fill="#81ff25" stroke="none" /><path d="M 112.34349029814194 116.9893568818739 l 12.366825089014501 17.021474466148867 a42.039699517436944,42.039699517436944 0 0,0 -0.5891016530202917,0.42030838781098534 l -12.071996108145326 -17.23182711580407" fill="#fff016" stroke="none" /><path d="M 112.04921762599082 117.19931262002967 l 10.985822169620107 15.68139905414078 a40.146659370180586,40.146659370180586 0 0,0 -0.5694002904189762,0.39163871181922105 l -10.714264994578249 -15.868178555325095" fill="#ffd714" stroke="none" /><path d="M 111.7513745106137 117.40417183066458 l 8.78853853131963 13.016114378905561 a36.70533804288344,36.70533804288344 0 0,0 -0.526678430648729,0.34905374493694935 l -8.563185401930935 -13.165466144933829" fill="#ffa80f" stroke="none" /><path d="M 111.45004920935366 117.60387380957326 l 8.81609927929788 13.554308489665454 a37.169195562409826,37.169195562409826 0 0,0 -0.5393395376734643,0.3442320109102297 l -8.581477939577486 -13.704054929399494" fill="#ffaf10" stroke="none" /><line stroke="#e1ed5e" stroke-width="0.3" x1="143.8653032363475" x2="146.44561519142675" y1="172.8068346515853" y2="177.08958963109032" /><path d="M 144.38136562736335 173.6633856474863 a86.0,86.0 0 0,1 -40.68145358897372,12.25698825130547" fill="none" id="id18" stroke="none" /><text fill="#e1ed5e" style="font-size:6.75px; font-family:Arial;" text-anchor="middle"><textPath startOffset="21.466115282336833" xlink:href="#id18">June</textPath></text><path d="M 110.8373102113329 117.98757091392108 l 32.51193063399873 53.96271274176323 a84.0,84.0 0 0,0 -1.2449285158864716,0.735525710825002 l -31.578234247083873 -54.514357024881974" fill="#4dd2ff" stroke="none" /><path d="M 109.89434966115114 118.52300852407294 l 10.5125926925628 19.680408589056533 a43.31217352370528,43.31217352370528 0 0,0 -0.6606325338568501,0.34561171829212134 l -10.172269256179455 -19.858449726293372" fill="#feff18" stroke="none" /><path d="M 107.93186726928326 119.44442032107085 l 4.479506354952671 10.98119792471998 a32.85970847221532,32.85970847221532 0 0,0 -0.5255658820583643,0.20913351091467663 l -4.289819396852439 -11.056678280040726" fill="#ff730a" stroke="none" /><path d="M 107.59598834532513 119.57807347666477 l 6.447199500502064 16.617158926689104 a38.82403860504452,38.82403860504452 0 0,0 -0.6251220763199178,0.23636767969441236 l -6.160207203421872 -16.725674856490148" fill="#ffc512" stroke="none" /><path d="M 107.2578585660854 119.70592522655815 l 4.434655932971541 12.04060363328129 a33.83130192527735,33.83130192527735 0 0,0 -0.5481966801714988,0.19656382560583907 l -4.226739692170307 -12.115154999927087" fill="#ff800b" stroke="none" /><path d="M 106.91757812671514 119.82793768551818 l 6.07993894655372 17.427002392420764 a39.45714143574946,39.45714143574946 0 0,0 -0.6432082745349391,0.21821116913744038 l -5.779060939081554 -17.529076548456327" fill="#ffce13" stroke="none" /><path d="M 105.88484417918355 120.15858648285463 l 7.364472181849771 25.227065468196024 a47.28003581911348,47.28003581911348 0 0,0 -0.7832024205889241,0.22134082725595655 l -6.9291385931562415 -25.3500950887905" fill="#ccff1d" stroke="none" /><path d="M 104.83641907484287 120.43548508189849 l 6.291362915725152 26.5831084981584 a48.3174468931894,48.3174468931894 0 0,0 -0.8109964982204628,0.1845801626170675 l -5.832846268111827 -26.687465394353154" fill="#c0ff1e" stroke="none" /><path d="M 104.13013068566511 120.58985236759428 l 9.845248591330243 49.08130769840541 a71.05900203969952,71.05900203969952 0 0,0 -1.2013450952527926,0.23024064673062253 l -8.998935881505746 -49.2435055434845" fill="#3cffa5" stroke="none" /><path d="M 102.70371172650421 120.8252237178851 l 1.8973462819794216 14.614228434629474 a35.73687876225063,35.73687876225063 0 0,0 -0.6107136082623468,0.07394891293427794 l -1.6455052506656944 -14.644722876289103" fill="#ff9b0e" stroke="none" /><path d="M 102.34483914955558 120.86867818915974 l 1.7966873579152864 15.990218470197421 a37.090841251679024,37.090841251679024 0 0,0 -0.6350789275514298,0.06582852752177551 l -1.5211758337582542 -16.018776366174954" fill="#ffae10" stroke="none" /><path d="M 101.26447882468166 120.96189622390904 l 0.8303626926918037 13.765336558161245 a34.790358688622455,34.790358688622455 0 0,0 -0.5980825995603559,0.03091403885438111 l -0.5932920247179682 -13.777590403777827" fill="#ff8e0d" stroke="none" /><line stroke="#e1ed5e" stroke-width="0.3" x1="102.19456741930631" x2="102.32365962044197" y1="184.97166512339345" y2="189.96999836594603" /><path d="M 102.22038585953345 185.97133177190398 a86.0,86.0 0 0,1 -42.740103519485714,-10.115201625700543" fill="none" id="id19" stroke="none" /><text fill="#e1ed5e" style="font-size:6.75px; font-family:Arial;" text-anchor="middle"><textPath startOffset="22.20632615414155" xlink:href="#id19">July</textPath></text><path d="M 100.54218724476979 120.99299961872073 l 0.4783148306802036 18.519917528420223 a39.52609322919258,39.52609322919258 0 0,0 -0.6803011140043184,0.011712000627843066 l -0.1594540267832173 -18.525407006327228" fill="#ffcf13" stroke="none" /><path d="M 99.81925306533755 120.99922214144158 l -0.2002144792395439 23.260966131104833 a44.261827769762704,44.261827769762704 0 0,0 -0.7618099407152549,-0.013115248998250967 l 0.6005841098474667 -23.254073404827423" fill="#f2ff19" stroke="none" /><path d="M 99.09653310690486 120.98055641714683 l -0.6333392363864275 14.707577756032835 a35.721207900104474,35.721207900104474 0 0,0 -0.6140848696485741,-0.03174117343350047 l 0.8864121744484905 -14.694496775837132" fill="#ff9b0e" stroke="none" /><path d="M 98.73552117531835 120.96189622390904 l -0.9788843834073494 16.227454710723272 a37.25695239042834,37.25695239042834 0 0,0 -0.6398211643749961,-0.04412581353466189 l 1.2580683085612756 -16.208200552672324" fill="#ffb010" stroke="none" /><path d="M 97.2962882734958 120.8252237178851 l -1.8904864591819537 14.56139094347918 a35.68359783095369,35.68359783095369 0 0,0 -0.6084417212786727,-0.08432447843562942 l 2.1408567716474574 -14.526691899550945" fill="#ff9a0e" stroke="none" /><path d="M 96.93821686468263 120.77559828337769 l -2.0604318427659307 13.98097199041093 a35.13198348340879,35.13198348340879 0 0,0 -0.5975183114557876,-0.09332007166466978 l 2.3007860178302355 -13.943433611399156" fill="#ff930d" stroke="none" /><path d="M 95.16358092515715 120.4354850818985 l -3.3636703978062306 14.212630289286155 a35.60524352022287,35.60524352022287 0 0,0 -0.5951954182710631,-0.1462845527784461 l 3.6078191008205045 -14.152624478193678" fill="#ff990e" stroke="none" /><path d="M 94.81253420990036 120.34920634021253 l -2.982257333982959 11.698693023605594 a33.072832197403116,33.072832197403116 0 0,0 -0.5504414731563945,-0.14537659594530203 l 3.1831892499508427 -11.64562507835671" fill="#ff760a" stroke="none" /><path d="M 94.46302465271185 120.25689768951611 l -13.248413825340576 48.469019017708916 a71.24705238545346,71.24705238545346 0 0,0 -1.1802204233008131,-0.3335420805279766 l 14.080765416746003 -48.23378814384242" fill="#3cffa7" stroke="none" /><path d="M 92.7421414339146 119.70592522655815 l -7.834847670538135 21.272517361876783 a43.669469180637776,43.669469180637776 0 0,0 -0.7031403796935561,-0.2658675262694757 l 8.199858270991975 -21.134501585500672" fill="#f9ff18" stroke="none" /><path d="M 92.40401165467489 119.57807347666478 l -5.2591099846718885 13.554949931582694 a35.53942589920899,35.53942589920899 0 0,0 -0.5684259109103065,-0.22618840092504985 l 5.491656971624053 -13.462414686251577" fill="#ff980e" stroke="none" /><path d="M 92.06813273071674 119.44442032107085 l -9.554465060999728 23.422105827276678 a46.29590567633451,46.29590567633451 0 0,0 -0.7352859929271905,-0.30734960467702643 l 9.95622251342438 -23.25417117957968" fill="#d9ff1c" stroke="none" /><path d="M 91.7346041902142 119.30500536409082 l -4.091784175074794 9.556942857473148 a31.396049947763792,31.396049947763792 0 0,0 -0.4949801445294014,-0.21698474923611372 l 4.255684994261939 -9.485093554942582" fill="#ff5e08" stroke="none" /><path d="M 91.40352486487194 119.15986991738527 l -10.437141220476601 23.262356367035853 a46.49649271180539,46.49649271180539 0 0,0 -0.7274088543045237,-0.3339177278598919 l 10.836018070548544 -23.079251568841887" fill="#d6ff1c" stroke="none" /><path d="M 90.7491055286396 118.85261126421891 l -11.460873838131823 23.356379200678745 a47.016765335057954,47.016765335057954 0 0,0 -0.7234897138771725,-0.362772761938101 l 11.861217459691757 -23.15563859783134" fill="#d0ff1d" stroke="none" /><path d="M 90.42595943632237 118.69057910512821 l -8.769099090486488 17.119160833019034 a40.2344161981991,40.2344161981991 0 0,0 -0.6136880733246904,-0.3210525952739201 l 9.062478066337674 -16.9656788188004" fill="#ffd814" stroke="none" /><line stroke="#e1ed5e" stroke-width="0.3" x1="58.666819895761336" x2="56.23545636021788" y1="174.27360380694188" y2="178.64263932499728" /><path d="M 58.180547188652646 175.14741091055294 a86.0,86.0 0 0,1 -31.652253787137756,-30.449443065178592" fill="none" id="id20" stroke="none" /><text fill="#e1ed5e" style="font-size:6.75px; font-family:Arial;" text-anchor="middle"><textPath startOffset="22.20632615414155" xlink:href="#id20">August</textPath></text><path d="M 89.7882731507175 118.34994917583269 l -2.013286577966595 3.6177726771715326 a25.14024177901597,25.14024177901597 0 0,0 -0.3763269525301263,-0.21368826517675482 l 2.0752622974179284 -3.5825812462001445" fill="#ff0000" stroke="none" /><path d="M 88.8546689885994 117.79835938074946 l -19.65472830665779 31.387306269777955 a58.03338142380976,58.03338142380976 0 0,0 -0.842087019456517,-0.5374597777855082 l 20.192097128161233 -31.044332063168643" fill="#52ff2b" stroke="none" /><path d="M 88.54995079064634 117.60387380957326 l -15.191921417514674 23.356813815298683 a48.86279289587583,48.86279289587583 0 0,0 -0.7011236090360304,-0.4646664969672129 l 15.591719725290666 -23.091849297240152" fill="#b9ff1f" stroke="none" /><path d="M 87.95078237400918 117.19931262002967 l -18.000995239465915 25.695008108029022 a52.37306601661609,52.37306601661609 0 0,0 -0.7339029564502986,-0.5236202730952413 l 18.440625523765103 -25.38134357308956" fill="#90ff24" stroke="none" /><path d="M 85.97065885151581 115.62618273729859 l -20.207527698724576 22.507580159843084 a51.24789811452166,51.24789811452166 0 0,0 -0.651337480744884,-0.594981345597836 l 20.591964728936315 -22.15640604765867" fill="#9dff22" stroke="none" /><path d="M 85.70375840098266 115.38237550388516 l -18.96398119477629 20.40473908937833 a48.85652455101736,48.85652455101736 0 0,0 -0.6110884883694067,-0.5778223079735608 l 19.312405517536515 -20.07528214465884" fill="#b9ff1f" stroke="none" /><path d="M 85.44109423537348 115.13401014063109 l -18.154269588098288 18.87139765061033 a47.186010646236504,47.186010646236504 0 0,0 -0.5805003856024515,-0.5681418064474015 l 18.476419926076534 -18.55610574124036" fill="#ceff1d" stroke="none" /><path d="M 84.43433777217949 114.09645910891817 l -35.443805075845596 32.09835480196475 a68.81806875279837,68.81806875279837 0 0,0 -0.7876101813822526,-0.8848883881811749 l 35.99107410687619 -31.483492244042715" fill="#39ff8b" stroke="none" /><path d="M 84.19399662182784 113.82643327865904 l -6.6098833091346325 5.782050551734135 a29.78195114670912,29.78195114670912 0 0,0 -0.3342066603485304,-0.3887578495697854 l 6.708432479053942 -5.667415603002818" fill="#ff4606" stroke="none" /><path d="M 83.50135304334701 112.99209946851258 l -23.707622441468832 18.66891204659059 a51.17581214864932,51.17581214864932 0 0,0 -0.5390352747909516,-0.6967757553535803 l 24.02546453347785 -18.25805829712376" fill="#9eff22" stroke="none" /><path d="M 83.28015986056508 112.70617746262583 l -13.59729499822609 10.333211431348914 a38.07810556688722,38.07810556688722 0 0,0 -0.39209339592545345,-0.5252731788291499 l 13.773149660846629 -10.097625373010457" fill="#ffbb11" stroke="none" /><path d="M 83.06392112726016 112.41649034213515 l -16.791160432557195 12.310245063848132 a41.820307447390675,41.820307447390675 0 0,0 -0.4206330486644661,-0.5842225149888532 l 17.00057327359727 -12.01938894340814" fill="#ffed16" stroke="none" /><path d="M 82.85270091963577 112.12312394758628 l -9.092734734471039 6.428554706597791 a32.135714641062634,32.135714641062634 0 0,0 -0.31544890780024687,-0.4544276789775381 l 9.202044549433419 -6.271085765433241" fill="#ff6809" stroke="none" /><path d="M 82.6465618267979 111.8261652097733 l -34.66889061039002 23.626443584601564 a62.954032137704594,62.954032137704594 0 0,0 -0.6025507124548429,-0.900731559965745 l 35.0704444282556 -23.02617511043" fill="#31ff44" stroke="none" /><line stroke="#e1ed5e" stroke-width="0.3" x1="26.63291911575756" x2="22.317208475507996" y1="142.92168965132927" y2="145.44649492493687" /><path d="M 25.769776987707644 143.4266507060508 a86.0,86.0 0 0,1 -11.730757126820373,-40.83630448921669" fill="none" id="id21" stroke="none" /><text fill="#e1ed5e" style="font-size:6.75px; font-family:Arial;" text-anchor="middle"><textPath startOffset="21.46611528233685" xlink:href="#id21">September</textPath></text><line stroke="#e1ed5e" stroke-width="0.3" x1="15.007084014347285" x2="10.007500721073583" y1="101.09737516637583" y2="101.16192664675087" /><path d="M 14.007167355692545 101.11028546245083 a86.0,86.0 0 0,1 10.666146001902534,-42.60595125391555" fill="none" id="id22" stroke="none" /><text fill="#e1ed5e" style="font-size:6.75px; font-family:Arial;" text-anchor="middle"><textPath startOffset="22.20632615414155" xlink:href="#id22">October</textPath></text><line stroke="#e1ed5e" stroke-width="0.3" x1="26.266209847984243" x2="21.928928074336255" y1="57.711370442889674" y2="55.22380399835377" /><path d="M 25.398753493254645 57.213857153982495 a86.0,86.0 0 0,1 29.58750427330803,-30.492523968695096" fill="none" id="id23" stroke="none" /><text fill="#e1ed5e" style="font-size:6.75px; font-family:Arial;" text-anchor="middle"><textPath startOffset="21.46611528233685" xlink:href="#id23">November</textPath></text><line stroke="#e1ed5e" stroke-width="0.3" x1="56.762969772571076" x2="54.21961505331055" y1="26.818313649435495" y2="22.513508569990535" /><path d="M 56.25429882871897 25.957352633546506 a86.0,86.0 0 0,1 42.265352541879196,-11.944610805530505" fill="none" id="id24" stroke="none" /><text fill="#e1ed5e" style="font-size:6.75px; font-family:Arial;" text-anchor="middle"><textPath startOffset="22.20632615414155" xlink:href="#id24">December</textPath></text></svg>