<?xml version="1.0" encoding="utf-8" ?>
<svg baseProfile="full" height="200mm" version="1.1" viewBox="0,0,200,200" width="200mm" xmlns="http://www.w3.org/2000/svg" xmlns:ev="http://www.w3.org/2001/xml-events" xmlns:xlink="http://www.w3.org/1999/xlink"><defs /><rect fill="#1a1a1a" height="200" width="200" x="0" y="0" /><text alignment-baseline="middle" fill="#e1ed5e" style="dominant-baseline: central; font-size:9.0px; font-family:Arial;" text-anchor="middle" x="100.0" y="100.0">2022</text><line stroke="#e1ed5e" stroke-width="0.3" x1="100.0" x2="100.0" y1="15.0" y2="10.0" /><path d="M 100.0 14.0 a86.0,86.0 0 0,1 42.46469731375804,11.215312516191453" fill="none" id="id1" stroke="none" /><text fill="#e1ed5e" style="font-size:6.75px; font-family:Arial;" text-anchor="middle"><textPath startOffset="22.20632615414155" xlink:href="#id1">January</textPath></text><line stroke="#e1ed5e" stroke-width="0.3" x1="143.23703022742887" x2="145.7803849466894" y1="26.81831364943548" y2="22.513508569990506" /><path d="M 143.74570117128098 25.957352633546492 a86.0,86.0 0 0,1 28.547481713284135,27.462654790039103" fill="none" id="id2" stroke="none" /><text fill="#e1ed5e" style="font-size:6.75px; font-family:Arial;" text-anchor="middle"><textPath startOffset="19.985693538727396" xlink:href="#id2">February</textPath></text><line stroke="#e1ed5e" stroke-width="0.3" x1="172.23445277983987" x2="176.4835382374775" y1="55.19839476539836" y2="52.563006222186495" /><path d="M 173.08426987136738 54.67131705675599 a86.0,86.0 0 0,1 12.851231095245387,41.99856678651699" fill="none" id="id3" stroke="none" /><text fill="#e1ed5e" style="font-size:6.75px; font-family:Arial;" text-anchor="middle"><textPath startOffset="22.20632615414155" xlink:href="#id3">March</textPath></text><line stroke="#e1ed5e" stroke-width="0.3" x1="184.98032266829074" x2="189.97916517819016" y1="98.17113171792111" y2="98.06355123074" /><path d="M 185.9800911702706 98.14961562048488 a86.0,86.0 0 0,1 -9.607161424134198,41.387399972396054" fill="none" id="id4" stroke="none" /><text fill="#e1ed5e" style="font-size:6.75px; font-family:Arial;" text-anchor="middle"><textPath startOffset="21.466115282336823" xlink:href="#id4">April</textPath></text><path d="M 118.81262510543309 109.33194174019688 l 12.963550405020696 6.430527183089464 a35.47084375411347,35.47084375411347 0 0,0 -0.2760329747666968,0.5446392464697942 l -12.85093876046773 -6.652720641261952" fill="#ffa30f" stroke="none" /><line stroke="#e1ed5e" stroke-width="0.3" x1="174.80103733775053" x2="179.2010983576182" y1="140.37084112569926" y2="142.7455964860345" /><path d="M 175.68104954172406 140.8457921977663 a86.0,86.0 0 0,1 -30.038265399797805,32.042727171017184" fill="none" id="id5" stroke="none" /><text fill="#e1ed5e" style="font-size:6.75px; font-family:Arial;" text-anchor="middle"><textPath startOffset="22.206326154141568" xlink:href="#id5">May</textPath></text><path d="M 118.48025628344425 109.97397251340804 l 9.917599692984362 5.352624185489616 a32.269843359220744,32.269843359220744 0 0,0 -0.2680296164358401,0.4865516082959094 l -9.823993667097012 -5.52254631218333" fill="#ff770a" stroke="none" /><path d="M 118.30583269289576 110.29060199501025 l 2.722863096350166 1.5306542390893216 a24.123601421613795,24.123601421613795 0 0,0 -0.20659912196632668,0.36022298344010584 l -2.69611197823146 -1.5772970683877428" fill="#ff0000" stroke="none" /><path d="M 118.12598468904814 110.60418214915192 l 10.18080514257844 5.956041230805749 a32.79505067789917,32.79505067789917 0 0,0 -0.2892509794282259,0.4848012792069581 l -10.076773287451987 -6.130404603898811" fill="#ff7e0b" stroke="none" /><path d="M 117.75023020441432 111.22182372390056 l 15.89039299989757 10.046021211826725 a39.79965775964196,39.79965775964196 0 0,0 -0.37107521088551126,0.575916967793987 l -15.715112925635008 -10.318059779542166" fill="#ffdc14" stroke="none" /><path d="M 117.35343817320211 111.8261652097733 l 20.549102251694894 14.003972913929253 a45.86718441490062,45.86718441490062 0 0,0 -0.45023903744355326,0.6486029138516236 l -20.305002307089204 -14.355617089967897" fill="#d6ff1c" stroke="none" /><path d="M 116.71984013943494 112.70617746262583 l 3.158216480201279 2.4000743265589115 a24.96669738054495,24.96669738054495 0 0,0 -0.2629744408169548,0.3399299140672768 l -3.1164352221662557 -2.454082234739441" fill="#ff0d01" stroke="none" /><path d="M 116.498646956653 112.99209946851258 l 10.593708023503138 8.342169436278049 a34.48400684480716,34.48400684480716 0 0,0 -0.37124839372327195,0.46318945321986676 l -10.448541717725012 -8.523286723076167" fill="#ff950d" stroke="none" /><path d="M 116.0416608686014 113.55231037782055 l 8.691256566429296 7.342544361604501 a32.37764907200211,32.37764907200211 0 0,0 -0.36333502506219145,0.42264071837844186 l -8.563579031796326 -7.491062179144471" fill="#ff780b" stroke="none" /><path d="M 115.32070863581623 114.36230785411682 l 10.678314101177696 10.010322507246093 a35.63669869685402,35.63669869685402 0 0,0 -0.4233868026355653,0.4439193698852597 l -10.504420747163167 -10.19264899371386" fill="#ffa50f" stroke="none" /><path d="M 114.81725581225074 114.88116024355365 l 7.823089780563081 7.856829503342598 a32.08740292220614,32.08740292220614 0 0,0 -0.39475152728995405,0.38634745363627543 l -7.686688300897333 -7.990327059901445" fill="#ff740a" stroke="none" /><path d="M 114.0293411484842 115.62618273729858 l 13.202021833686134 14.704696641957023 a40.761616427537184,40.761616427537184 0 0,0 -0.5261308495510671,0.46424930254387636 l -12.946948631228478 -14.929769086273188" fill="#ffe915" stroke="none" /><path d="M 113.75828350139079 115.86535959552629 l 4.139981056230005 4.7740176431977215 a27.319073318415164,27.319073318415164 0 0,0 -0.3579247722770886,0.305031255946639 l -4.05719080737587 -4.8445732893673075" fill="#ff3004" stroke="none" /><path d="M 113.48314897796784 116.09983520530334 l 6.40879965242094 7.652560869599891 a30.981703303935767,30.981703303935767 0 0,0 -0.4118056600330528,0.33888802262060613 l -6.276123863843195 -7.761744011077676" fill="#ff6509" stroke="none" /><path d="M 112.04921762599082 117.19931262002967 l 5.6114429328360576 8.009894438550084 a30.77991312360142,30.77991312360142 0 0,0 -0.43655167694144986,0.30026422409104603 l -5.4727343712717245 -8.105299452006223" fill="#ff6209" stroke="none" /><line stroke="#e1ed5e" stroke-width="0.3" x1="143.8653032363475" x2="146.44561519142675" y1="172.8068346515853" y2="177.08958963109032" /><path d="M 144.38136562736335 173.6633856474863 a86.0,86.0 0 0,1 -40.68145358897372,12.25698825130547" fill="none" id="id6" stroke="none" /><text fill="#e1ed5e" style="font-size:6.75px; font-family:Arial;" text-anchor="middle"><textPath startOffset="21.466115282336833" xlink:href="#id6">June</textPath></text><path d="M 109.89434966115114 118.52300852407294 l 4.247133637621938 7.950971541003267 a30.01421613794919,30.01421613794919 0 0,0 -0.4578012610724379,0.23949998276928594 l -4.109641474023005 -8.02290094271727" fill="#ff5708" stroke="none" /><path d="M 109.57404056367764 118.69057910512821 l 3.8298682733995433 7.47672369362704 a29.400552849809134,29.400552849809134 0 0,0 -0.4524130364467763,0.22684928841498786 l -3.7006013292700066 -7.5415408229513305" fill="#ff4e07" stroke="none" /><path d="M 108.59647513512805 119.15986991738527 l 11.349565039533278 25.29597147181444 a48.725417928129524,48.725417928129524 0 0,0 -0.7681894521268624,0.3367516808054034 l -10.912454912748661 -25.487587705914297" fill="#b4ff20" stroke="none" /><path d="M 107.93186726928326 119.44442032107085 l 4.645106947616327 11.387156246998051 a33.29814400421219,33.29814400421219 0 0,0 -0.5325783227589416,0.21192390578971884 l -4.44840754881552 -11.46542699719384" fill="#ff850c" stroke="none" /><path d="M 107.2578585660854 119.70592522655815 l 6.358866212434442 17.265057036721213 a39.39884164801896,39.39884164801896 0 0,0 -0.6384121498413045,0.228911883316763 l -6.0607345019634025 -17.371956461077936" fill="#ffd714" stroke="none" /><path d="M 105.88484417918355 120.15858648285463 l 3.835954768371324 13.140097441502716 a34.68856127418718,34.68856127418718 0 0,0 -0.5746223471706334,0.16239401505790768 l -3.6092012530960846 -13.204180249899142" fill="#ff980e" stroke="none" /><path d="M 105.18746579009965 120.34920634021253 l 2.0635147581520545 8.094682316720055 a29.353560616032645,29.353560616032645 0 0,0 -0.49068909692139545,0.12059944161686402 l -1.923872376487448 -8.12900301665095" fill="#ff4d07" stroke="none" /><path d="M 104.83641907484287 120.43548508189849 l 3.8700265309951005 16.352153983527835 a37.803869948663944,37.803869948663944 0 0,0 -0.6345286872322257,0.1444166633660113 l -3.5879776943700126 -16.416347380471528" fill="#ffc212" stroke="none" /><path d="M 104.13013068566511 120.58985236759428 l 2.0158647600955923 10.049647568650727 a31.24983546136633,31.24983546136633 0 0,0 -0.5283192203852681,0.10125363599717886 l -1.8425779251386198 -10.082858402996374" fill="#ff6809" stroke="none" /><path d="M 103.7750983002368 120.6578951692458 l 1.0216667244026436 5.590711131758508 a26.683296037909702,26.683296037909702 0 0,0 -0.45253730135320547,0.07867941049581774 l -0.9252804515773881 -5.607469120775331" fill="#ff2603" stroke="none" /><path d="M 103.06178313531738 120.77559828337769 l 2.6954331458473897 18.289746126001056 a39.487297617480586,39.487297617480586 0 0,0 -0.6732986803864851,0.09331306199001872 l -2.3802058742740746 -18.333433753483675" fill="#ffd814" stroke="none" /><path d="M 102.34483914955558 120.86867818915974 l 1.364247603137515 12.141576621835734 a33.21798078188759,33.21798078188759 0 0,0 -0.568766814083253,0.05895500582692527 l -1.1550481924486593 -12.163260996118417" fill="#ff840c" stroke="none" /><line stroke="#e1ed5e" stroke-width="0.3" x1="102.19456741930631" x2="102.32365962044197" y1="184.97166512339345" y2="189.96999836594603" /><path d="M 102.22038585953345 185.97133177190398 a86.0,86.0 0 0,1 -42.740103519485714,-10.115201625700543" fill="none" id="id7" stroke="none" /><text fill="#e1ed5e" style="font-size:6.75px; font-family:Arial;" text-anchor="middle"><textPath startOffset="22.20632615414155" xlink:href="#id7">July</textPath></text><path d="M 99.81925306533755 120.99922214144158 l -0.08974298243342828 10.426361184351405 a31.42674740028959,31.42674740028959 0 0,0 -0.5408996821916886,-0.00931207855906724 l 0.2692023545177848 -10.423271628513179" fill="#ff6b09" stroke="none" /><path d="M 99.09653310690486 120.98055641714683 l -0.7467248416143695 17.340649433100555 a38.35671975779913,38.35671975779913 0 0,0 -0.659392070908836,-0.03408303822136192 l 1.0451049809366943 -17.32522658811699" fill="#ffc912" stroke="none" /><path d="M 98.73552117531835 120.96189622390904 l -0.4540605809834851 7.527188745402637 a28.540871396603922,28.540871396603922 0 0,0 -0.4901381459730877,-0.03380279621815924 l 0.5835614877355029 -7.518257604668193" fill="#ff4206" stroke="none" /><path d="M 98.01472825383883 120.90594882070398 l -1.6557432912567085 17.435842007105492 a38.51428195340266,38.51428195340266 0 0,0 -0.65945144550405,-0.0683548386607721 l 1.9556273333663519 -17.404757799988957" fill="#ffcb13" stroke="none" /><path d="M 97.2962882734958 120.8252237178851 l -1.0758615965805158 8.286777846408665 a29.35632486507832,29.35632486507832 0 0,0 -0.5005552667626503,-0.06937239890332182 l 1.2183454545299972 -8.267030882012739" fill="#ff4d07" stroke="none" /><path d="M 96.93821686468263 120.77559828337769 l -2.5048021832298817 16.99622789669506 a38.17980781887587,38.17980781887587 0 0,0 -0.6493551470105517,-0.10141591929995723 l 2.7969931938489503 -16.950593670047997" fill="#ffc712" stroke="none" /><path d="M 96.22490169976321 120.6578951692458 l -2.2435920528589084 12.277266906561115 a33.480584441226796,33.480584441226796 0 0,0 -0.5660329409382163,-0.10848156030055994 l 2.4545926083688197 -12.236828147912085" fill="#ff880c" stroke="none" /><path d="M 95.86986931433489 120.58985236759428 l -5.446314230484793 27.151394105378362 a48.69224693958141,48.69224693958141 0 0,0 -0.8203682252101292,-0.17191613788363524 l 5.912873917124309 -27.053621986768185" fill="#b4ff20" stroke="none" /><path d="M 94.81253420990036 120.34920634021253 l -2.8924713817114753 11.34648388273533 a32.70935895748322,32.70935895748322 0 0,0 -0.5443920745309527,-0.14377889478619435 l 3.0873538990539173 -11.295013638645553" fill="#ff7d0b" stroke="none" /><path d="M 94.46302465271185 120.25689768951611 l -1.655917860871223 6.058137626771175 a27.2803738317757,27.2803738317757 0 0,0 -0.4519043704061558,-0.12771268902752833 l 1.7599533993819927 -6.0287361444051255" fill="#ff2f04" stroke="none" /><path d="M 93.42475214034765 119.94407469862007 l -3.7952431044590704 11.511750369020533 a33.12123206528893,33.12123206528893 0 0,0 -0.5399238199218324,-0.18317147439603657 l 3.9928366573181284 -11.444715907726373" fill="#ff830c" stroke="none" /><path d="M 92.7421414339146 119.70592522655815 l -1.4416359847601512 3.9142083936917538 a25.17125180992497,25.17125180992497 0 0,0 -0.40529284846082186,-0.15324707575740398 l 1.5087990539812561 -3.8888130678277166" fill="#ff1001" stroke="none" /><path d="M 92.06813273071674 119.44442032107085 l -4.108450402083666 10.071580092590994 a31.877319994734762,31.877319994734762 0 0,0 -0.5062855244274405,-0.21162739027164265 l 4.281207386008569 -9.999367659299377" fill="#ff710a" stroke="none" /><path d="M 91.07499286063937 119.00905698771935 l -5.197345213180393 11.069641715633857 a33.22903777807029,33.22903777807029 0 0,0 -0.5156629745911663,-0.2475495645911229 l 5.387120855771801 -10.978537874543171" fill="#ff840c" stroke="none" /><path d="M 90.7491055286396 118.85261126421891 l -6.109219107913003 12.450118561614623 a34.86823746215612,34.86823746215612 0 0,0 -0.536549270565968,-0.26903694284191965 l 6.3226222861617325 -12.343113777863401" fill="#ff9b0e" stroke="none" /><line stroke="#e1ed5e" stroke-width="0.3" x1="58.666819895761336" x2="56.23545636021788" y1="174.27360380694188" y2="178.64263932499728" /><path d="M 58.180547188652646 175.14741091055294 a86.0,86.0 0 0,1 -31.652253787137756,-30.449443065178592" fill="none" id="id8" stroke="none" /><text fill="#e1ed5e" style="font-size:6.75px; font-family:Arial;" text-anchor="middle"><textPath startOffset="22.20632615414155" xlink:href="#id8">August</textPath></text><path d="M 89.7882731507175 118.34994917583269 l -4.716723642771129 8.475710366986561 a30.699749901276817,30.699749901276817 0 0,0 -0.45954782079413875,-0.2609432461083065 l 4.861920230486475 -8.393263955083622" fill="#ff6108" stroke="none" /><path d="M 89.1626897886671 117.98757091392108 l -7.161155358811529 11.885955770420406 a34.87653020929314,34.87653020929314 0 0,0 -0.5115569875548323,-0.3142400834574639 l 7.36469154629867 -11.760927220134564" fill="#ff9b0e" stroke="none" /><path d="M 85.18274418774928 114.88116024355367 l -5.903887500813866 5.929350014115694 a29.367381861261023,29.367381861261023 0 0,0 -0.35514866386863425,-0.35976372146234287 l 6.005076789738034 -5.826845798672687" fill="#ff4d07" stroke="none" /><line stroke="#e1ed5e" stroke-width="0.3" x1="26.63291911575756" x2="22.317208475507996" y1="142.92168965132927" y2="145.44649492493687" /><path d="M 25.769776987707644 143.4266507060508 a86.0,86.0 0 0,1 -11.730757126820373,-40.83630448921669" fill="none" id="id9" stroke="none" /><text fill="#e1ed5e" style="font-size:6.75px; font-family:Arial;" text-anchor="middle"><textPath startOffset="21.46611528233685" xlink:href="#id9">September</textPath></text><path d="M 81.87401531095188 110.60418214915194 l -8.09549375410561 4.736078719504085 a30.379097011978413,30.379097011978413 0 0,0 -0.2601723788713143,-0.45363247255722083 l 8.1758181291293 -4.596026401088557" fill="#ff5c08" stroke="none" /><path d="M 81.69416730710424 110.29060199501025 l -10.21194141799292 5.740630677221723 a32.71488745557457,32.71488745557457 0 0,0 -0.2717261016376598,-0.4932618026539121 l 10.309243929082097 -5.563998356169988" fill="#ff7d0b" stroke="none" /><path d="M 81.51974371655577 109.97397251340807 l -12.539913273812699 6.7679121109146525 a35.249703830459396,35.249703830459396 0 0,0 -0.28358804990341624,-0.5364417174702804 l 12.654553831941001 -6.551055378358246" fill="#ffa00e" stroke="none" /><path d="M 80.87730276802145 108.67885076344099 l -11.893476954205427 5.397863611591247 a34.06107674081875,34.06107674081875 0 0,0 -0.23771211714376325,-0.5359780699930239 l 11.98463015608047 -5.192337205105527" fill="#ff900d" stroke="none" /><path d="M 80.73074385275274 108.34839909993369 l -9.795691357202701 4.243980166374082 a31.67552981440042,31.67552981440042 0 0,0 -0.21245082355105419,-0.5021709899159518 l 9.86729316194606 -4.074734650791972" fill="#ff6e0a" stroke="none" /><path d="M 80.45479744820244 107.68017299344265 l -11.71117046410195 4.6018359176189225 a33.58286165591681,33.58286165591681 0 0,0 -0.20678362474904016,-0.539846793016186 l 11.7886483684445 -4.399565557769579" fill="#ff890c" stroke="none" /><path d="M 80.32549172779594 107.34259656027581 l -13.091304372251086 4.885721417953695 a34.9732789258918,34.9732789258918 0 0,0 -0.2056357838307096,-0.5658213600472036 l 13.17346441708702 -4.659652260900374" fill="#ff9c0e" stroke="none" /><path d="M 79.97269907076064 106.31721596034903 l -18.58792929473038 5.863194647416217 a40.490720021060945,40.490720021060945 0 0,0 -0.2039444828656315,-0.6665023701536927 l 18.68610055010214 -5.542365304710476" fill="#ffe515" stroke="none" /><path d="M 79.76711848015287 105.62410040840567 l -14.893020068314481 4.1397880062925525 a36.45768066341977,36.45768066341977 0 0,0 -0.1628650073882231,-0.6060812797614608 l 14.962073152044479 -3.8828157933555527" fill="#ffb010" stroke="none" /><path d="M 79.67330655649465 105.27499134158121 l -11.168042442173396 2.898224807129126 a32.53797551665131,32.53797551665131 0 0,0 -0.13602219552887534,-0.5433410560028038 l 11.21627595199733 -2.7055559117289305" fill="#ff7a0b" stroke="none" /><path d="M 79.58551787078972 104.9243191809786 l -14.153360191463811 3.4140304233532053 a35.559299723575094,35.559299723575094 0 0,0 -0.13840938263384736,-0.5962639978765224 l 14.210030140028215 -3.1698977681281084" fill="#ffa40f" stroke="none" /><path d="M 79.4281124754447 104.21870165774334 l -14.175836671192176 2.9070558349725406 a35.47084375411347,35.47084375411347 0 0,0 -0.11750995130396842,-0.599180710051863 l 14.22377655547181 -2.662611397852723" fill="#ffa30f" stroke="none" /><path d="M 79.23777060512086 103.15116336523772 l -13.746743958963023 2.0863961731138274 a34.9041726997499,34.9041726997499 0 0,0 -0.08504310093634386,-0.5947912498754089 l 13.780621110915966 -1.8494594512580178" fill="#ff9b0e" stroke="none" /><path d="M 79.1416061653843 102.43462659150553 l -13.780213065148901 1.6084495014829892 a34.87376596024747,34.87376596024747 0 0,0 -0.06446282536036982,-0.5968457026591535 l 13.805858192010323 -1.3710074769390534" fill="#ff9b0e" stroke="none" /><path d="M 79.04373962182676 101.35467743843564 l -19.383920189209334 1.2530365091335067 a40.42437804396472,40.42437804396472 0 0,0 -0.038910675874784445,-0.6947762564578861 l 19.402617215971652 -0.919188536340183" fill="#ffe415" stroke="none" /><path d="M 79.0235259727143 100.99374915477108 l -14.664479868226191 0.6947218324324338 a35.680926681584836,35.680926681584836 0 0,0 -0.023783660544517474,-0.613750598333991 l 14.67426566162191 -0.442193987084446" fill="#ffa60f" stroke="none" /><line stroke="#e1ed5e" stroke-width="0.3" x1="15.007084014347285" x2="10.007500721073583" y1="101.09737516637583" y2="101.16192664675087" /><path d="M 14.007167355692545 101.11028546245083 a86.0,86.0 0 0,1 10.666146001902534,-42.60595125391555" fill="none" id="id10" stroke="none" /><text fill="#e1ed5e" style="font-size:6.75px; font-family:Arial;" text-anchor="middle"><textPath startOffset="22.20632615414155" xlink:href="#id10">October</textPath></text><path d="M 79.00019446554 99.90962569577889 l -10.036895339689908 -0.04319456346279948 a31.036988284849283,31.036988284849283 0 0,0 0.0068975906387113055,-0.5342259963797579 l 10.034664741933481 0.21595681790302934" fill="#ff6509" stroke="none" /><path d="M 79.00486145842228 99.54816195383935 l -11.70388465494032 -0.25188023239309537 a32.70659470843754,32.70659470843754 0 0,0 0.016958066500040492,-0.5627556687728664 l 11.697814893984633 0.4533060485909562" fill="#ff7d0b" stroke="none" /><path d="M 79.16333360222342 97.38593545837743 l -15.345682308221662 -1.925192985438757 a36.4659734105568,36.4659734105568 0 0,0 0.08349666189667707,-0.6221471148457304 l 15.310269647267152 2.189058442349147" fill="#ffb010" stroke="none" /><path d="M 79.21141760316559 97.0276538004421 l -15.68242276112387 -2.2422687994822095 a36.84191128076873,36.84191128076873 0 0,0 0.09516459816256155,-0.6270157996627876 l 15.641502269522007 2.5118837115370893" fill="#ffb510" stroke="none" /><path d="M 79.26566170972629 96.67025291283419 l -13.711901483524437 -2.202007287866399 a34.887587205475846,34.887587205475846 0 0,0 0.10032364035188432,-0.592115804352499 l 13.67196598165233 2.4377088805347262" fill="#ff9b0e" stroke="none" /><path d="M 79.32604984820605 96.31383870115002 l -8.819833150186145 -1.5725745385774377 a29.95893115703567,29.95893115703567 0 0,0 0.09489031515926283,-0.5069078578992546 l 8.79145711111702 1.724160473939265" fill="#ff5608" stroke="none" /><path d="M 79.46518482838121 95.60439243477599 l -17.669617846106632 -3.782293886253698 a39.06989601158352,39.06989601158352 0 0,0 0.14642952930277753,-0.6564148679190308 l 17.601893929801818 4.085886923722688" fill="#ffd313" stroke="none" /><path d="M 79.54389044137918 95.25157060432595 l -13.094387361270647 -3.039569850093839 a34.44254310912202,34.44254310912202 0 0,0 0.13902847291697354,-0.5763627765596835 l 13.040126088092858 3.2645178583129195" fill="#ff950d" stroke="none" /><path d="M 79.62865764111835 94.90015583598534 l -10.664318620675571 -2.6697486165968503 a31.993418454653153,31.993418454653153 0 0,0 0.13833903579479567,-0.533076736961623 l 10.616783253010468 2.852921779107337" fill="#ff730a" stroke="none" /><path d="M 79.71946130924805 94.55025226153421 l -7.877829363750036 -2.116915305543312 a29.157298933789654,29.157298933789654 0 0,0 0.13441963196867535,-0.4835789353082788 l 7.840222961215 2.2522055442705335" fill="#ff4a06" stroke="none" /><path d="M 79.81627453868168 94.20196356495316 l -26.76462423289729 -7.6884848027723995 a48.847044886139265,48.847044886139265 0 0,0 0.2391041979911842,-0.8061404905623147 l 26.628314137794398 8.148054680081254" fill="#b2ff20" stroke="none" /><path d="M 79.91906864156998 93.8553929516997 l -7.438165176072407 -2.276020038688569 a28.77859681453205,28.77859681453205 0 0,0 0.14902450421077132,-0.4724484029662497 l 7.397885188093432 2.4037186080812334" fill="#ff4506" stroke="none" /><path d="M 80.14247586403 93.16781622104843 l -13.22615139239281 -4.550592328747523 a34.987100171120176,34.987100171120176 0 0,0 0.20083748271557725,-0.5677946087032227 l 13.145860828867422 4.777584563877357" fill="#ff9c0e" stroke="none" /><path d="M 80.2630227832202 92.82701384747504 l -19.323895819192867 -7.022860471565175 a41.560484401737526,41.560484401737526 0 0,0 0.2501454537156811,-0.6702654514629264 l 19.200145776975557 7.354449060057443" fill="#fff316" stroke="none" /><path d="M 80.52162464483688 92.15188598940014 l -15.411940800300854 -6.209689787773559 a37.61590101355799,37.61590101355799 0 0,0 0.24715136038602004,-0.5984966230447993 l 15.302767753028634 6.474060981271671" fill="#ffc011" stroke="none" /><path d="M 80.65960295795068 91.81776055985345 l -58.02119112614798 -24.546718320439627 a84.0,84.0 0 0,0 0.574837160629277,-1.3268034216536029 l 57.59006325567602 25.54182088667983" fill="#4dd2ff" stroke="none" /><path d="M 80.95270993114464 91.15688171328213 l -13.824767334430495 -6.418448628795888 a36.24206923785705,36.24206923785705 0 0,0 0.2675731368356978,-0.5635772658334847 l 13.712236003753047 6.655468310269905" fill="#ffad10" stroke="none" /><path d="M 81.10775173730289 90.83032412892265 l -20.17792581328476 -9.793701463462092 a43.42911675661445,43.42911675661445 0 0,0 0.33221203586796516,-0.6697191924566033 l 20.00635376446338 10.139580244417658" fill="#f4ff19" stroke="none" /><path d="M 81.26839172434947 90.50648371742162 l -12.92498230629986 -6.550613709790162 a35.4901934974332,35.4901934974332 0 0,0 0.28086358926645993,-0.5425390573778535 l 12.810309283873286 6.77212548942835" fill="#ffa30f" stroke="none" /><path d="M 81.43458229118936 90.18545643968196 l -13.08401295418878 -6.9168179836702395 a35.7997893905489,35.7997893905489 0 0,0 0.29269208990674894,-0.5423139903726664 l 12.96301276506356 7.141012957375378" fill="#ffa70f" stroke="none" /><line stroke="#e1ed5e" stroke-width="0.3" x1="26.266209847984243" x2="21.928928074336255" y1="57.711370442889674" y2="55.22380399835377" /><path d="M 25.398753493254645 57.213857153982495 a86.0,86.0 0 0,1 29.58750427330803,-30.492523968695096" fill="none" id="id11" stroke="none" /><text fill="#e1ed5e" style="font-size:6.75px; font-family:Arial;" text-anchor="middle"><textPath startOffset="21.46611528233685" xlink:href="#id11">November</textPath></text><path d="M 81.96595687620814 89.24020034530311 l -8.277571195559068 -4.938715466095573 a30.63893642227195,30.63893642227195 0 0,0 0.27412248147894847,-0.450585283897958 l 8.191332915793902 5.080468523200606" fill="#ff6008" stroke="none" /><path d="M 82.15384107792192 88.93136811851018 l -11.104224460268938 -6.887116349059154 a34.0666052389101,34.0666052389101 0 0,0 0.313368001035245,-0.4956729221495338 l 10.98402886298773 7.077236918922903" fill="#ff900d" stroke="none" /><path d="M 82.34701348167596 88.62581576622439 l -16.103092875080378 -10.3755557114736 a40.15624588653416,40.15624588653416 0 0,0 0.37938734739443103,-0.5778329583515114 l 15.922108892328026 10.651206733802779" fill="#ffe115" stroke="none" /><path d="M 82.7489923806493 88.02491185347247 l -6.932647921795142 -4.8124186009409655 a29.439252336448597,29.439252336448597 0 0,0 0.2925524021440959,-0.4137946257031035 l 6.848782899847168 4.931039726975856" fill="#ff4e07" stroke="none" /><path d="M 82.95767976084542 87.72973835380427 l -6.732131504238898 -4.847052152196051 a29.29551138607345,29.29551138607345 0 0,0 0.29816886041602125,-0.4067019905185515 l 6.647700031309243 4.962216586386103" fill="#ff4c07" stroke="none" /><path d="M 83.17141714833178 87.43820079747576 l -8.42425965313864 -6.288340445860165 a31.512439120705544,31.512439120705544 0 0,0 0.3282156484724443,-0.43189332038387485 l 8.314768064442086 6.432418542125067" fill="#ff6c0a" stroke="none" /><path d="M 83.39014120810768 87.1503855733568 l -23.18864845949849 -17.939056286557573 a50.31762537843886,50.31762537843886 0 0,0 0.5358729328613855,-0.6805042059856092 l 22.876421446043135 18.33555288649623" fill="#a1ff22" stroke="none" /><path d="M 83.6137871275137 86.86637796730984 l -7.913783734257236 -6.342932636295932 a31.142029748584967,31.142029748584967 0 0,0 0.33885717892159556,-0.4153988344340326 l 7.803428063259248 6.478215640338047" fill="#ff6709" stroke="none" /><path d="M 83.84228863543731 86.58626213691792 l -13.08015333579841 -10.858824254041696 a38.000131630906935,38.000131630906935 0 0,0 0.42214416169441926,-0.49968553632335705 l 12.891298560616868 11.08236873999417" fill="#ffc512" stroke="none" /><path d="M 84.07557802195018 86.31012108654704 l -13.612372821568442 -11.702260584962948 a38.95103330261945,38.95103330261945 0 0,0 0.44146013562256237,-0.5046652491173264 l 13.408920822368037 11.934841390283216" fill="#ffd113" stroke="none" /><path d="M 84.31358615837235 86.03803664274999 l -10.388093726106192 -9.246102099555724 a34.906936948795575,34.906936948795575 0 0,0 0.4033519160590475,-0.44539126001843443 l 10.227398169431098 9.423546146843714" fill="#ff9b0e" stroke="none" /><path d="M 84.5562425177563 85.77008943001954 l -12.274504103960444 -11.309753853039627 a37.69053573779124,37.69053573779124 0 0,0 0.4437300993724936,-0.473340331824113 l 12.078006682617493 11.51936360174179" fill="#ffc111" stroke="none" /><path d="M 84.80347519578584 85.50635884689758 l -24.20402134144943 -23.084514670598814 a54.44741345267869,54.44741345267869 0 0,0 0.6526837959509908,-0.6726480242528912 l 23.80307328179532 23.49772689040183" fill="#73ff27" stroke="none" /><path d="M 85.05521093208273 85.24692304244772 l -5.3488063019174765 -5.280191687190294 a28.515993155192838,28.515993155192838 0 0,0 0.34784650328734984,-0.3463527398569793 l 5.257123998462813 5.371480277697383" fill="#ff4106" stroke="none" /><path d="M 85.57189188830299 84.74124197986013 l -9.664952241730438 -10.221379434578358 a35.06726339344478,35.06726339344478 0 0,0 0.44216832778444853,-0.41094727143043597 l 9.487576030151132 10.386231292083442" fill="#ff9d0e" stroke="none" /><path d="M 85.83668400450813 84.49514656593479 l -8.719472016706003 -9.54537310926985 a33.928392786626304,33.928392786626304 0 0,0 0.43458880324431326,-0.3901781185159764 l 8.55387222586572 9.694050236555105" fill="#ff8e0d" stroke="none" /><path d="M 86.10567301691215 84.25364557470407 l -10.170640035928852 -11.52632314848897 a36.371988943003814,36.371988943003814 0 0,0 0.47301979694692037,-0.41019810669788637 l 9.970726440335158 11.699686248606536" fill="#ffaf10" stroke="none" /><path d="M 86.37877921826538 84.01681056812374 l -9.563721422900151 -11.222105098016055 a35.74450440963538,35.74450440963538 0 0,0 0.47172952344106145,-0.3950599096670544 l 9.36913436249998 11.385066165076921" fill="#ffa60f" stroke="none" /><path d="M 86.65592168130627 83.78471172551755 l -11.013211933422365 -13.382895548375012 a38.33184151638805,38.33184151638805 0 0,0 0.5130928750962317,-0.4148854217767869 l 10.781215659761632 13.570487067415934" fill="#ffc912" stroke="none" /><path d="M 86.93701828274178 83.55741782278169 l -5.545362121647728 -6.980035214101496 a29.914703172304858,29.914703172304858 0 0,0 0.4059388821988542,-0.31684173645205926 l 5.424390684289448 7.074455339776777" fill="#ff5507" stroke="none" /><path d="M 87.22198572758235 83.33499621200491 l -5.382341144101156 -7.019614600708737 a29.845596946162956,29.845596946162956 0 0,0 0.4103824243610193,-0.309091533908818 l 5.260712565981747 7.111222724123409" fill="#ff5407" stroke="none" /><path d="M 87.80319425747018 82.90503203632743 l -13.09747811604032 -18.35734482659481 a43.55074371462419,43.55074371462419 0 0,0 0.6140009077082311,-0.4301468740626674 l 12.779546068748427 18.580076543421423" fill="#f2ff19" stroke="none" /><path d="M 88.09926311788651 82.69761687909137 l -16.31514737754534 -23.72045810244351 a49.78965381071475,49.78965381071475 0 0,0 0.7103212642292234,-0.47961208841337866 l 15.904421418909578 23.99778210315555" fill="#a7ff21" stroke="none" /><path d="M 88.39885842347998 82.49532879139004 l -8.211048868888797 -12.389445450664178 a35.86336711859945,35.86336711859945 0 0,0 0.5175134668256758,-0.3366051543970242 l 7.996568376278834 12.528949529220737" fill="#ffa80f" stroke="none" /><path d="M 89.00827224532344 82.1063720568725 l -16.298777564358485 -26.53306815576296 a52.13926549953929,52.13926549953929 0 0,0 0.7687759256288932,-0.46317889329887113 l 15.83963957251194 26.809693658520455" fill="#8dff24" stroke="none" /><line stroke="#e1ed5e" stroke-width="0.3" x1="56.762969772571076" x2="54.21961505331055" y1="26.818313649435495" y2="22.513508569990535" /><path d="M 56.25429882871897 25.957352633546506 a86.0,86.0 0 0,1 42.265352541879196,-11.944610805530505" fill="none" id="id12" stroke="none" /><text fill="#e1ed5e" style="font-size:6.75px; font-family:Arial;" text-anchor="middle"><textPath startOffset="22.20632615414155" xlink:href="#id12">December</textPath></text><path d="M 89.3179101791058 81.91981866633112 l -8.534985548614957 -14.446057745869433 a37.778991707252864,37.778991707252864 0 0,0 0.5627329547711557,-0.3259712493023858 l 8.285055861378481 14.590833152561865" fill="#ffc212" stroke="none" /><path d="M 89.63071344664047 81.73862282372117 l -8.181322048287088 -14.40814726794989 a37.568908779781495,37.568908779781495 0 0,0 0.5651006325420336,-0.3144778901881705 l 7.9320973266730075 14.546840555698244" fill="#ffbf11" stroke="none" /><path d="M 89.94658935756843 81.56283822128135 l -8.065754622300965 -14.791957488652118 a37.84809793339476,37.84809793339476 0 0,0 0.5746692145497491,-0.30696839235725243 l 7.8099403612229095 14.92860460751112" fill="#ffc312" stroke="none" /><path d="M 90.58718382345135 81.22770947309562 l -15.09866762240644 -30.111772062769106 a54.68513887060682,54.68513887060682 0 0,0 0.8450904205255684,-0.41468219916449456 l 14.578105934870447 30.36720942206843" fill="#71ff27" stroke="none" /><path d="M 90.91171255644093 81.06846463323043 l -10.737984479845489 -22.367969126250305 a45.8118994339871,45.8118994339871 0 0,0 0.713840556026272,-0.3351577126111826 l 10.351365712519607 22.549491821501498" fill="#d7ff1c" stroke="none" /><path d="M 91.23893434514133 80.91482961587045 l -9.052832090383125 -19.720756550666973 a42.69935500855601,42.69935500855601 0 0,0 0.6706195624646224,-0.300887449586834 l 8.712030409451728 19.87366433077034" fill="#fdff18" stroke="none" /><path d="M 91.90106846888425 80.62456947434976 l -1.821913121847681 -4.35864298648628 a25.724101619060157,25.724101619060157 0 0,0 0.4100129405831949,-0.1672545732757184 l 1.7466163116761058 4.389358445945575" fill="#ff1802" stroke="none" /><path d="M 92.23578459929587 80.48803036053334 l -9.68355152318964 -24.33538401131323 a47.19125970777939,47.19125970777939 0 0,0 0.7573451898282908,-0.2938381675899046 l 9.263223168361673 24.498464882793687" fill="#c6ff1e" stroke="none" /><path d="M 92.91201910852362 80.23233633223022 l -15.485890066700675 -43.188585172784386 a66.881005660129,66.881005660129 0 0,0 1.0870328961022526,-0.37924443299965566 l 14.740175166535137 43.44875045895625" fill="#37ff78" stroke="none" /><path d="M 93.25333710446033 80.11325718540243 l -6.665848584167533 -19.648531205261207 a41.74845333684349,41.74845333684349 0 0,0 0.6825219607309322,-0.22501675957783213 l 6.326643801194191 19.760361689098275" fill="#fff517" stroke="none" /><path d="M 93.59665428221793 80.00007090966166 l -0.9794244733530048 -3.059091431219319 a24.212057391075426,24.212057391075426 0 0,0 0.3980169699126928,-0.12366580999920515 l 0.9266221307295832 3.0754973761010493" fill="#ff0100" stroke="none" /><path d="M 93.94186890950719 79.89281104454417 l -5.074093474898739 -16.841127198047303 a38.58891667763591,38.58891667763591 0 0,0 0.6376538845045463,-0.18614865450769572 l 4.783449372670772 16.9259741814737" fill="#ffcc13" stroke="none" /><path d="M 94.98787191387505 79.60689891045804 l -4.656522315633788 -18.946229760430054 a40.510069764380674,40.510069764380674 0 0,0 0.6785944277430649,-0.16060137654015214 l 4.329704200928189 19.02357704911108" fill="#ffe515" stroke="none" /><path d="M 95.692805502759 79.44645832069477 l -4.522072306172733 -21.578919104138272 a43.047650388311176,43.047650388311176 0 0,0 0.7265492043396452,-0.14573893537048815 l 4.149956692365952 21.65356199558597" fill="#f9ff18" stroke="none" /><path d="M 96.40284397218896 79.31037775812273 l -4.118476126089295 -23.688078749486444 a45.04343819928919,45.04343819928919 0 0,0 0.7650323267035485,-0.12623688895600607 l 3.7101145932468604 23.755461901382077" fill="#e0ff1b" stroke="none" /><path d="M 97.11714578562143 79.19881850522333 l -2.494274154417577 -17.99738922800673 a39.16940897722785,39.16940897722785 0 0,0 0.6686502957803943,-0.08680999878428103 l 2.184109130129325 18.037657549955146" fill="#ffd413" stroke="none" /><path d="M 97.83486435360386 79.11191278185805 l -2.521954104904499 -24.330483584748983 a45.460839805186254,45.460839805186254 0 0,0 0.7790578070125014,-0.07398092601070695 l 2.1027711708017613 24.370290055274868" fill="#dbff1b" stroke="none" /><path d="M 98.55514903715128 79.0497635885617 l -1.225375115655426 -17.7678522046725 a38.810056601289986,38.810056601289986 0 0,0 0.6668638718298926,-0.040227049875016185 l 0.9193491949859104 17.786312523927823" fill="#ffcf13" stroke="none" /><path d="M 98.91598698831166 79.02799685794201 l -1.1951682224432694 -23.122482337485557 a44.15335000658155,44.15335000658155 0 0,0 0.7593517683618963,-0.032699284484543144 l 0.796975621692049 23.139629348494292" fill="#ebff1a" stroke="none" /><path d="M 99.63851952072746 79.00311137660856 l -0.9632024933413248 -55.948402843663665 a76.95669343161774,76.95669343161774 0 0,0 1.3246829726138467,-0.01140196456262721 l 1.3705437100380077e-14 55.95669343161774" fill="#44ffe7" stroke="none" /></svg>