<?xml version="1.0" encoding="utf-8" ?>
<svg baseProfile="full" height="200mm" version="1.1" viewBox="0,0,200,200" width="200mm" xmlns="http://www.w3.org/2000/svg" xmlns:ev="http://www.w3.org/2001/xml-events" xmlns:xlink="http://www.w3.org/1999/xlink"><defs /><rect fill="#1a1a1a" height="200" width="200" x="0" y="0" /><text alignment-baseline="middle" fill="#e1ed5e" style="dominant-baseline: central; font-size:9.0px; font-family:Arial;" text-anchor="middle" x="100.0" y="100.0">2024</text><line stroke="#e1ed5e" stroke-width="0.3" x1="100.0" x2="100.0" y1="15.0" y2="10.0" /><path d="M 100.0 14.0 a86.0,86.0 0 0,1 42.35913384403234,11.155469271406648" fill="none" id="id25" stroke="none" /><text fill="#e1ed5e" style="font-size:6.75px; font-family:Arial;" text-anchor="middle"><textPath startOffset="22.145653131862478" xlink:href="#id25">January</textPath></text><path d="M 104.64783097203109 79.52079915486377 l 9.050463971216185 -39.878014179850865 a61.89213754528698,61.89213754528698 0 0,0 1.034093380997602,0.24404322222513686 l -9.733689505953674 39.7167748139795" fill="#48ff2c" stroke="none" /><path d="M 106.72888874123014 80.10723608172694 l 12.381831038278444 -36.604683357476674 a59.642108942986084,59.642108942986084 0 0,0 0.9670378018166169,0.33638594610105527 l -13.008374612140079 36.386738978807024" fill="#64ff29" stroke="none" /><path d="M 107.40779381753099 80.34994680014964 l 8.605150944460457 -22.826185233615032 a45.394330388355684,45.394330388355684 0 0,0 0.7268015715284865,0.28114246134325666 l -8.995724778482469 22.675102884133736" fill="#ffd714" stroke="none" /><path d="M 109.06512990194946 81.05736502329252 l 15.73505577399973 -32.880214744734296 a57.45134430814212,57.45134430814212 0 0,0 0.8859537628718049,0.43336438112981673 l -16.2971697861336 32.60525661350726" fill="#7fff26" stroke="none" /><line stroke="#e1ed5e" stroke-width="0.3" x1="143.13028292997686" x2="145.6673583964461" y1="26.7553504044142" y2="22.446841604673864" /><path d="M 143.63769802327073 25.89364864446614 a86.0,86.0 0 0,1 29.32050498858742,28.57503671076993" fill="none" id="id26" stroke="none" /><text fill="#e1ed5e" style="font-size:6.75px; font-family:Arial;" text-anchor="middle"><textPath startOffset="20.669276256404974" xlink:href="#id26">February</textPath></text><path d="M 112.45986205192187 83.09580414077388 l 17.917397256409508 -24.308390514097972 a51.1981948770101,51.1981948770101 0 0,0 0.7029926888547608,0.5275388195149512 l -18.332042934175035 23.997232667319004" fill="#d3ff1c" stroke="none" /><line stroke="#e1ed5e" stroke-width="0.3" x1="172.87174338648825" x2="177.1583165268699" y1="56.24261187166439" y2="53.66864786411523" /><path d="M 173.72905801456457 55.72781907015455 a86.0,86.0 0 0,1 12.242430191666344,42.057860355516425" fill="none" id="id27" stroke="none" /><text fill="#e1ed5e" style="font-size:6.75px; font-family:Arial;" text-anchor="middle"><textPath startOffset="22.145653131862474" xlink:href="#id27">March</textPath></text><path d="M 119.83427380445688 93.10060997987247 l 38.22128730715845 -13.29534778047584 a61.46767939998729,61.46767939998729 0 0,0 0.3381149082292646,0.9995766470978442 l -38.44388763696008 12.637269458903834" fill="#4eff2c" stroke="none" /><path d="M 120.35273937422433 94.82641323984039 l 21.917389362981986 -5.5713146687856225 a43.61440920358482,43.61440920358482 0 0,0 0.17822192063286893,0.7272062545616343 l -22.009798810131148 5.1942525896158935" fill="#ffbc11" stroke="none" /><line stroke="#e1ed5e" stroke-width="0.3" x1="184.99686870605535" x2="189.99668451229388" y1="99.2704041080226" y2="99.22748670261217" /><path d="M 185.99683186730306 99.26182062694052 a86.0,86.0 0 0,1 -10.086455211305974,41.156179273409016" fill="none" id="id28" stroke="none" /><text fill="#e1ed5e" style="font-size:6.75px; font-family:Arial;" text-anchor="middle"><textPath startOffset="21.40746469413373" xlink:href="#id28">April</textPath></text><path d="M 120.51834098615036 104.47187691870673 l 35.687671894458255 7.777961987030457 a57.52542426746329,57.52542426746329 0 0,0 -0.21856685908717807,0.9630459094300653 l -35.54889417381341 -8.389442230399538" fill="#7eff26" stroke="none" /><path d="M 120.26092885502905 105.52220625578681 l 15.122871653872576 4.121805917686113 a36.674518527934914,36.674518527934914 0 0,0 -0.1707661773381067,0.6059889201840818 l -15.049886984459889 -4.380802761773203" fill="#ff4d07" stroke="none" /><path d="M 120.05942366710727 106.21446072829308 l 20.17863526774761 6.251392786902073 a42.12480137291044,42.12480137291044 0 0,0 -0.21992212244503434,0.6889029162408175 l -20.06834842952532 -6.596864736834274" fill="#ffa50f" stroke="none" /><line stroke="#e1ed5e" stroke-width="0.3" x1="174.33088141563837" x2="178.70328620479359" y1="141.23008692659167" y2="143.65538615756765" /><path d="M 175.20536237346943 141.71514677278685 a86.0,86.0 0 0,1 -30.301960400862466,31.631185727798858" fill="none" id="id29" stroke="none" /><text fill="#e1ed5e" style="font-size:6.75px; font-family:Arial;" text-anchor="middle"><textPath startOffset="22.145653131862474" xlink:href="#id29">May</textPath></text><path d="M 118.00360718960297 110.81064883170644 l 22.062286016278364 13.247768851810457 a46.73417657153753,46.73417657153753 0 0,0 -0.41889853264576415,0.6842392716299567 l -21.831619519177195 -13.624545239564972" fill="#ffeb16" stroke="none" /><path d="M 117.21940702142032 112.02048342749411 l 23.911586785767522 16.692144643880862 a50.16147587872624,50.16147587872624 0 0,0 -0.4989511879294994,0.701837331191984 l -23.621520499308062 -17.10015920178235" fill="#e1ff1b" stroke="none" /><path d="M 112.7482090630111 116.68781488649013 l 19.55014391201935 25.59176594888391 a53.2047606940825,53.2047606940825 0 0,0 -0.7305444629455539,0.5482141844367084 l -19.10794646016303 -25.923599160584633" fill="#b7ff1f" stroke="none" /><path d="M 110.96478420261333 117.91015095944535 l 16.89335025971437 27.59401806468362 a53.35452234157503,53.35452234157503 0 0,0 -0.7852445307288218,0.4715167787947432 l -16.417172972428112 -27.879948844014287" fill="#b5ff1f" stroke="none" /><line stroke="#e1ed5e" stroke-width="0.3" x1="143.1302829299769" x2="145.66735839644613" y1="173.24464959558577" y2="177.55315839532614" /><path d="M 143.63769802327073 174.10635135553383 a86.0,86.0 0 0,1 -40.68552437913181,11.842963189579606" fill="none" id="id30" stroke="none" /><text fill="#e1ed5e" style="font-size:6.75px; font-family:Arial;" text-anchor="middle"><textPath startOffset="21.407464694133747" xlink:href="#id30">June</textPath></text><path d="M 109.06512990194946 118.94263497670748 l 16.735890366238102 34.97157411386548 a59.76984681878854,59.76984681878854 0 0,0 -0.9293109312621766,0.43496443949043906 l -16.13309072110442 -35.25371478492645" fill="#62ff29" stroke="none" /><path d="M 106.72888874123015 119.89276391827305 l 12.84989789383063 37.98843984588688 a61.10288565435708,61.10288565435708 0 0,0 -0.9964928095584641,0.3275669793640618 l -12.195882346624431 -38.20342774665296" fill="#52ff2b" stroke="none" /><path d="M 104.64783097203109 120.47920084513623 l 5.317989527936028 23.4320430950054 a45.0279349138753,45.0279349138753 0 0,0 -0.7552633799378226,0.16460613840895344 l -4.9149637313790695 -23.519880691548074" fill="#ffd213" stroke="none" /><path d="M 104.29559338865022 120.5559693870025 l 4.739841783913216 22.681858778065365 a44.171810843450075,44.171810843450075 0 0,0 -0.7435662082676814,0.14873406643972917 l -4.349779090114576 -22.759882241167954" fill="#ffc512" stroke="none" /><path d="M 101.80034050326958 120.92268563240118 l 2.1816240828090354 25.353778782287463 a46.44746710735397,46.44746710735397 0 0,0 -0.7949837996447813,0.061536773921446845 l -1.7460712883890184 -25.387493323203966" fill="#ffe715" stroke="none" /><line stroke="#e1ed5e" stroke-width="0.3" x1="101.45913802915013" x2="101.54496967792366" y1="184.9874750549273" y2="189.98673829345242" /><path d="M 101.47630435890484 185.9873277026323 a86.0,86.0 0 0,1 -42.54439059252881,-10.42667462771756" fill="none" id="id31" stroke="none" /><text fill="#e1ed5e" style="font-size:6.75px; font-family:Arial;" text-anchor="middle"><textPath startOffset="22.145653131862474" xlink:href="#id31">July</textPath></text><line stroke="#e1ed5e" stroke-width="0.3" x1="58.13341422392154" x2="55.67067388415222" y1="173.97424548756322" y2="178.32567169271397" /><path d="M 57.64086615596768 174.84453072859336 a86.0,86.0 0 0,1 -31.369924170532247,-30.572349798747897" fill="none" id="id32" stroke="none" /><text fill="#e1ed5e" style="font-size:6.75px; font-family:Arial;" text-anchor="middle"><textPath startOffset="22.145653131862474" xlink:href="#id32">August</textPath></text><path d="M 89.03521579738668 117.91015095944536 l -13.671656499247794 22.331623426647145 a47.18426237844022,47.18426237844022 0 0,0 -0.6871733329488121,-0.4288469828800159 l 14.052993960986319 -22.093640646925582" fill="#fff216" stroke="none" /><path d="M 87.54013794807813 116.9041958592261 l -15.75677972319568 21.377097871681354 a47.55666433610882,47.55666433610882 0 0,0 -0.6529915246995682,-0.49001701376790274 l 16.121424236806014 -21.103461830649433" fill="#fff717" stroke="none" /><path d="M 87.2517909369889 116.68781488649013 l -10.23754194410563 13.401271034345614 a37.864202631411686,37.864202631411686 0 0,0 -0.5131321677722088,-0.3990146773118382 l 10.466084056513067 -13.223555305412983" fill="#ff6108" stroke="none" /><path d="M 83.64595745247003 113.17365903436017 l -19.380366800557287 15.611451630345442 a45.88606114536325,45.88606114536325 0 0,0 -0.48886915446912727,-0.617670206576461 l 19.645502385667974 -15.276461479854301" fill="#ffdf14" stroke="none" /><path d="M 83.4222238831116 112.89097897827486 l -17.12485431938561 13.316390297509603 a42.69301468251446,42.69301468251446 0 0,0 -0.44491818305011127,-0.5824121836781361 l 17.350924479790013 -13.020457200590597" fill="#ffae10" stroke="none" /><path d="M 82.37810715431573 111.42229804090323 l -10.40983106259389 6.74752672676251 a33.40538994470222,33.40538994470222 0 0,0 -0.3077786646970605,-0.483879181581191 l 10.524127418916839 -6.567833870502647" fill="#ff1602" stroke="none" /><path d="M 81.99639281039703 110.81064883170644 l -26.44412118124548 15.878934968022905 a51.84529333248586,51.84529333248586 0 0,0 -0.45161272174025757,-0.7669371334864037 l 26.712807613115512 -15.422646666242944" fill="#caff1d" stroke="none" /><line stroke="#e1ed5e" stroke-width="0.3" x1="26.387840678322732" x2="22.057713659400548" y1="142.50000000000003" y2="145.00000000000006" /><path d="M 25.521815274538298 143.00000000000003 a86.0,86.0 0 0,1 -11.493303480769221,-40.785679425670985" fill="none" id="id33" stroke="none" /><text fill="#e1ed5e" style="font-size:6.75px; font-family:Arial;" text-anchor="middle"><textPath startOffset="21.40746469413373" xlink:href="#id33">September</textPath></text><path d="M 81.81346652052679 110.50000000000001 l -11.061730978101501 6.3864933579101315 a33.77298671582025,33.77298671582025 0 0,0 -0.28556931449075684,-0.5045736159819479 l 11.169733657613637 -6.195662971829062" fill="#ff1c02" stroke="none" /><path d="M 80.5471966667186 107.91128576633889 l -19.672270223998826 8.000541040191637 a42.236922392423565,42.236922392423565 0 0,0 -0.26738249658103613,-0.6739785585586058 l 19.806711395545985 -7.661661464419465" fill="#ffa70f" stroke="none" /><path d="M 79.94057633289273 106.21446072829308 l -15.464358333334015 4.790897741909796 a37.1894743532702,37.1894743532702 0 0,0 -0.18368710176437236,-0.6114346207814951 l 15.544321755102017 -4.524725517537577" fill="#ff5607" stroke="none" /><path d="M 79.73907114497094 105.5222062557868 l -16.3382955815009 4.453075113911343 a37.934278268607386,37.934278268607386 0 0,0 -0.16584598967326633,-0.6297442360468409 l 16.4123310519789 -4.1719503734917" fill="#ff6209" stroke="none" /><path d="M 79.01933749520258 100.90099992219065 l -21.74144989175394 0.9336714060532161 a42.761488590859976,42.761488590859976 0 0,0 -0.025199371704409508,-0.7336522122476052 l 21.7542739504552 -0.5603129292414909" fill="#ffaf10" stroke="none" /><line stroke="#e1ed5e" stroke-width="0.3" x1="15.003131293944662" x2="10.003315487706104" y1="100.72959589197737" y2="100.7725132973878" /><path d="M 14.003168132696942 100.73817937305945 a86.0,86.0 0 0,1 10.791469493833604,-42.45332614584628" fill="none" id="id34" stroke="none" /><text fill="#e1ed5e" style="font-size:6.75px; font-family:Arial;" text-anchor="middle"><textPath startOffset="22.145653131862435" xlink:href="#id34">October</textPath></text><path d="M 79.00696218219943 99.45929381324524 l -27.740752318825013 -0.7145033765099782 a48.749952329498505,48.749952329498505 0 0,0 0.0287283770936268,-0.836395353672152 l 27.724399254734536 1.1906049947462687" fill="#f5ff19" stroke="none" /><path d="M 79.0935383218832 98.0201363427161 l -29.340537332537913 -2.7785793906329768 a50.47181084345007,50.47181084345007 0 0,0 0.08908901309927218,-0.8618553866977829 l 29.288515926956975 3.2818392996136727" fill="#ddff1b" stroke="none" /><path d="M 79.13060592940154 97.66154086499901 l -30.595754715272918 -3.4283181324836574 a51.787230661666555,51.787230661666555 0 0,0 0.10657790798031262,-0.8826179670683313 l 30.532394721032937 3.9530297764754248" fill="#cbff1d" stroke="none" /><path d="M 79.48165901384962 95.52812308129327 l -48.17395551929782 -10.499289387722113 a70.30481789868429,70.30481789868429 0 0,0 0.2671219451657858,-1.1769885777070324 l 47.98662271257437 11.324712299368155" fill="#39ff87" stroke="none" /><path d="M 79.73907114497095 94.47779374421319 l -10.751827052096713 -2.93045827430014 a32.14402847517956,32.14402847517956 0 0,0 0.1496710273857443,-0.53112967498682 l 10.699937532636387 3.114595873189973" fill="#ff0000" stroke="none" /><path d="M 79.83685265289637 94.1308016681162 l -30.771451686114016 -8.957121117885714 a53.04859213118922,53.04859213118922 0 0,0 0.2620188187844495,-0.87217543073108 l 30.61315654732594 9.484034152207519" fill="#b9ff1f" stroke="none" /><path d="M 80.16572619554312 93.10060997987247 l -27.409193882093675 -9.534340434856958 a50.02012330769719,50.02012330769719 0 0,0 0.2890682694763392,-0.8085753971656721 l 27.241485442573392 10.003450788403551" fill="#e3ff1b" stroke="none" /><path d="M 80.28708602549916 92.7611449362534 l -33.87894749612458 -12.440818792896737 a57.090955316849936,57.090955316849936 0 0,0 0.3457246546678285,-0.917075721066296 l 33.66039215764231 13.020562794157177" fill="#84ff25" stroke="none" /><path d="M 80.5471966667186 92.08871423366112 l -27.954023354784585 -11.368657940434058 a51.17737240195767,51.17737240195767 0 0,0 0.3379513760325529,-0.810960275599494 l 27.75474613421555 11.846850725474816" fill="#d3ff1c" stroke="none" /><path d="M 80.9802524753101 91.09779779509293 l -25.407737602565312 -11.892104109880657 a49.05307951439649,49.05307951439649 0 0,0 0.3635084111134364,-0.7595927711089963 l 25.199849933491972 12.32650938305474" fill="#f1ff19" stroke="none" /><path d="M 81.46374523516351 90.13048839642627 l -23.409193791555094 -12.464077165919177 a47.5206254369796,47.5206254369796 0 0,0 0.3895665075315762,-0.7167584960679204 l 23.191781934408166 12.864090495461717" fill="#fff717" stroke="none" /><path d="M 81.63589988554816 89.8137432299009 l -24.942633658280133 -13.835258432609661 a49.52278649971397,49.52278649971397 0 0,0 0.41874259778663747,-0.7398780471482233 l 24.70145769547213 14.26139324985699" fill="#eaff1a" stroke="none" /><line stroke="#e1ed5e" stroke-width="0.3" x1="26.387840678322718" x2="22.05771365940052" y1="57.49999999999999" y2="54.99999999999999" /><path d="M 25.521815274538284 56.99999999999999 a86.0,86.0 0 0,1 29.574782752854787,-30.34633250058573" fill="none" id="id35" stroke="none" /><text fill="#e1ed5e" style="font-size:6.75px; font-family:Arial;" text-anchor="middle"><textPath startOffset="21.40746469413373" xlink:href="#id35">November</textPath></text><path d="M 81.99639281039701 89.18935116829357 l -34.38868631660035 -20.64941806590663 a61.11209559524567,61.11209559524567 0 0,0 0.5477740071566526,-0.894747673875564 l 34.0291443449883 21.236702855906735" fill="#52ff2b" stroke="none" /><path d="M 82.78059297857968 87.97951657250589 l -47.215410480007996 -32.960023448615516 a78.58175173202821,78.58175173202821 0 0,0 0.7816448318041377,-1.0994813439965945 l 46.64265054967389 33.76568201932163" fill="#45ffef" stroke="none" /><path d="M 82.98947788004972 87.6856937992154 l -20.963389905530804 -15.175877641073704 a46.879933896904596,46.879933896904596 0 0,0 0.477501103932951,-0.6478219542273553 l 20.699786782014034 15.533505904569923" fill="#ffed16" stroke="none" /><path d="M 83.42222388311158 87.10902102172516 l -49.73332835066524 -38.672936934824556 a84.0,84.0 0 0,0 0.8949342774337534,-1.1307202243412684 l 49.06212764258992 39.520977103080504" fill="#4dd2ff" stroke="none" /><path d="M 83.64595745247003 86.82634096563983 l -30.08341354910475 -24.233068462049047 a59.62969554439713,59.62969554439713 0 0,0 0.6489788849763839,-0.791648717180546 l 29.662987844889738 24.745919460928086" fill="#64ff29" stroke="none" /><path d="M 84.10781606972428 86.27271002978789 l -35.232405097314675 -30.432912382636083 a67.55625119176253,67.55625119176253 0 0,0 0.7656019211463633,-0.871114446658334 l 34.704792112209724 31.033239107105715" fill="#35ff61" stroke="none" /><line stroke="#e1ed5e" stroke-width="0.3" x1="56.869717070023135" x2="54.33264160355391" y1="26.7553504044142" y2="22.446841604673864" /><path d="M 56.362301976729285 25.89364864446614 a86.0,86.0 0 0,1 42.16139366436587,-11.88097634709845" fill="none" id="id36" stroke="none" /><text fill="#e1ed5e" style="font-size:6.75px; font-family:Arial;" text-anchor="middle"><textPath startOffset="22.145653131862474" xlink:href="#id36">December</textPath></text></svg>